<?xml version="1.0" encoding="utf-8" standalone="no"?>
<!DOCTYPE svg PUBLIC "-//W3C//DTD SVG 1.1//EN"
  "http://www.w3.org/Graphics/SVG/1.1/DTD/svg11.dtd">
<!-- Created with matplotlib (https://matplotlib.org/) -->
<svg height="472.32pt" version="1.1" viewBox="0 0 517.68 472.32" width="517.68pt" xmlns="http://www.w3.org/2000/svg" xmlns:xlink="http://www.w3.org/1999/xlink">
 <defs>
  <style type="text/css">
*{stroke-linecap:butt;stroke-linejoin:round;}
  </style>
 </defs>
 <g id="figure_1">
  <g id="patch_1">
   <path d="M 0 472.32 
L 517.68 472.32 
L 517.68 0 
L 0 0 
z
" style="fill:#ffffff;"/>
  </g>
  <g id="axes_1">
   <g id="patch_2">
    <path d="M 207.072 420.3648 
L 465.912 420.3648 
L 465.912 56.6784 
L 207.072 56.6784 
z
" style="fill:#ffffff;"/>
   </g>
   <g id="patch_3">
    <path clip-path="url(#p0a2c19ad9c)" d="M 426.721283 403.8336 
L 357.121588 403.8336 
L 357.121588 384.666991 
L 426.721283 384.666991 
z
" style="fill:#bfbf00;stroke:#ffffff;stroke-linejoin:miter;"/>
   </g>
   <g id="patch_4">
    <path clip-path="url(#p0a2c19ad9c)" d="M 426.721283 379.875339 
L 332.871154 379.875339 
L 332.871154 360.70873 
L 426.721283 360.70873 
z
" style="fill:#bfbf00;stroke:#ffffff;stroke-linejoin:miter;"/>
   </g>
   <g id="patch_5">
    <path clip-path="url(#p0a2c19ad9c)" d="M 426.721283 355.917078 
L 425.670031 355.917078 
L 425.670031 336.75047 
L 426.721283 336.75047 
z
" style="fill:#bfbf00;stroke:#ffffff;stroke-linejoin:miter;"/>
   </g>
   <g id="patch_6">
    <path clip-path="url(#p0a2c19ad9c)" d="M 426.721283 331.958817 
L 373.352907 331.958817 
L 373.352907 312.792209 
L 426.721283 312.792209 
z
" style="fill:#bfbf00;stroke:#ffffff;stroke-linejoin:miter;"/>
   </g>
   <g id="patch_7">
    <path clip-path="url(#p0a2c19ad9c)" d="M 426.721283 308.000557 
L 375.315314 308.000557 
L 375.315314 288.833948 
L 426.721283 288.833948 
z
" style="fill:#bfbf00;stroke:#ffffff;stroke-linejoin:miter;"/>
   </g>
   <g id="patch_8">
    <path clip-path="url(#p0a2c19ad9c)" d="M 426.721283 284.042296 
L 372.766995 284.042296 
L 372.766995 264.875687 
L 426.721283 264.875687 
z
" style="fill:#bfbf00;stroke:#ffffff;stroke-linejoin:miter;"/>
   </g>
   <g id="patch_9">
    <path clip-path="url(#p0a2c19ad9c)" d="M 426.721283 260.084035 
L 405.170204 260.084035 
L 405.170204 240.917426 
L 426.721283 240.917426 
z
" style="fill:#bfbf00;stroke:#ffffff;stroke-linejoin:miter;"/>
   </g>
   <g id="patch_10">
    <path clip-path="url(#p0a2c19ad9c)" d="M 426.721283 236.125774 
L 207.072 236.125774 
L 207.072 216.959165 
L 426.721283 216.959165 
z
" style="fill:#bfbf00;stroke:#ffffff;stroke-linejoin:miter;"/>
   </g>
   <g id="patch_11">
    <path clip-path="url(#p0a2c19ad9c)" d="M 426.721283 212.167513 
L 415.354897 212.167513 
L 415.354897 193.000904 
L 426.721283 193.000904 
z
" style="fill:#bfbf00;stroke:#ffffff;stroke-linejoin:miter;"/>
   </g>
   <g id="patch_12">
    <path clip-path="url(#p0a2c19ad9c)" d="M 426.721283 188.209252 
L 436.825265 188.209252 
L 436.825265 169.042643 
L 426.721283 169.042643 
z
" style="fill:#bfbf00;stroke:#ffffff;stroke-linejoin:miter;"/>
   </g>
   <g id="patch_13">
    <path clip-path="url(#p0a2c19ad9c)" d="M 426.721283 164.250991 
L 375.436529 164.250991 
L 375.436529 145.084383 
L 426.721283 145.084383 
z
" style="fill:#bfbf00;stroke:#ffffff;stroke-linejoin:miter;"/>
   </g>
   <g id="patch_14">
    <path clip-path="url(#p0a2c19ad9c)" d="M 426.721283 140.29273 
L 337.048912 140.29273 
L 337.048912 121.126122 
L 426.721283 121.126122 
z
" style="fill:#bfbf00;stroke:#ffffff;stroke-linejoin:miter;"/>
   </g>
   <g id="patch_15">
    <path clip-path="url(#p0a2c19ad9c)" d="M 426.721283 116.33447 
L 428.609845 116.33447 
L 428.609845 97.167861 
L 426.721283 97.167861 
z
" style="fill:#bfbf00;stroke:#ffffff;stroke-linejoin:miter;"/>
   </g>
   <g id="patch_16">
    <path clip-path="url(#p0a2c19ad9c)" d="M 426.721283 92.376209 
L 222.158956 92.376209 
L 222.158956 73.2096 
L 426.721283 73.2096 
z
" style="fill:#bfbf00;stroke:#ffffff;stroke-linejoin:miter;"/>
   </g>
   <g id="patch_17">
    <path clip-path="url(#p0a2c19ad9c)" d="M 357.121588 403.8336 
L 404.540783 403.8336 
L 404.540783 384.666991 
L 357.121588 384.666991 
z
" style="fill:#6c3376;stroke:#ffffff;stroke-linejoin:miter;"/>
   </g>
   <g id="patch_18">
    <path clip-path="url(#p0a2c19ad9c)" d="M 332.871154 379.875339 
L 390.823693 379.875339 
L 390.823693 360.70873 
L 332.871154 360.70873 
z
" style="fill:#6c3376;stroke:#ffffff;stroke-linejoin:miter;"/>
   </g>
   <g id="patch_19">
    <path clip-path="url(#p0a2c19ad9c)" d="M 425.670031 355.917078 
L 444.603216 355.917078 
L 444.603216 336.75047 
L 425.670031 336.75047 
z
" style="fill:#6c3376;stroke:#ffffff;stroke-linejoin:miter;"/>
   </g>
   <g id="patch_20">
    <path clip-path="url(#p0a2c19ad9c)" d="M 373.352907 331.958817 
L 417.136789 331.958817 
L 417.136789 312.792209 
L 373.352907 312.792209 
z
" style="fill:#6c3376;stroke:#ffffff;stroke-linejoin:miter;"/>
   </g>
   <g id="patch_21">
    <path clip-path="url(#p0a2c19ad9c)" d="M 375.315314 308.000557 
L 394.662712 308.000557 
L 394.662712 288.833948 
L 375.315314 288.833948 
z
" style="fill:#6c3376;stroke:#ffffff;stroke-linejoin:miter;"/>
   </g>
   <g id="patch_22">
    <path clip-path="url(#p0a2c19ad9c)" d="M 372.766995 284.042296 
L 387.64501 284.042296 
L 387.64501 264.875687 
L 372.766995 264.875687 
z
" style="fill:#6c3376;stroke:#ffffff;stroke-linejoin:miter;"/>
   </g>
   <g id="patch_23">
    <path clip-path="url(#p0a2c19ad9c)" d="M 405.170204 260.084035 
L 418.232064 260.084035 
L 418.232064 240.917426 
L 405.170204 240.917426 
z
" style="fill:#6c3376;stroke:#ffffff;stroke-linejoin:miter;"/>
   </g>
   <g id="patch_24">
    <path clip-path="url(#p0a2c19ad9c)" d="M 207.072 236.125774 
L 348.202451 236.125774 
L 348.202451 216.959165 
L 207.072 216.959165 
z
" style="fill:#6c3376;stroke:#ffffff;stroke-linejoin:miter;"/>
   </g>
   <g id="patch_25">
    <path clip-path="url(#p0a2c19ad9c)" d="M 415.354897 212.167513 
L 425.353476 212.167513 
L 425.353476 193.000904 
L 415.354897 193.000904 
z
" style="fill:#6c3376;stroke:#ffffff;stroke-linejoin:miter;"/>
   </g>
   <g id="patch_26">
    <path clip-path="url(#p0a2c19ad9c)" d="M 436.825265 188.209252 
L 453.586286 188.209252 
L 453.586286 169.042643 
L 436.825265 169.042643 
z
" style="fill:#6c3376;stroke:#ffffff;stroke-linejoin:miter;"/>
   </g>
   <g id="patch_27">
    <path clip-path="url(#p0a2c19ad9c)" d="M 375.436529 164.250991 
L 427.977206 164.250991 
L 427.977206 145.084383 
L 375.436529 145.084383 
z
" style="fill:#6c3376;stroke:#ffffff;stroke-linejoin:miter;"/>
   </g>
   <g id="patch_28">
    <path clip-path="url(#p0a2c19ad9c)" d="M 337.048912 140.29273 
L 387.74018 140.29273 
L 387.74018 121.126122 
L 337.048912 121.126122 
z
" style="fill:#6c3376;stroke:#ffffff;stroke-linejoin:miter;"/>
   </g>
   <g id="patch_29">
    <path clip-path="url(#p0a2c19ad9c)" d="M 428.609845 116.33447 
L 449.051317 116.33447 
L 449.051317 97.167861 
L 428.609845 97.167861 
z
" style="fill:#6c3376;stroke:#ffffff;stroke-linejoin:miter;"/>
   </g>
   <g id="patch_30">
    <path clip-path="url(#p0a2c19ad9c)" d="M 222.158956 92.376209 
L 368.311599 92.376209 
L 368.311599 73.2096 
L 222.158956 73.2096 
z
" style="fill:#6c3376;stroke:#ffffff;stroke-linejoin:miter;"/>
   </g>
   <g id="matplotlib.axis_1">
    <g id="xtick_1">
     <g id="line2d_1">
      <defs>
       <path d="M 0 0 
L 0 3.5 
" id="m5af3d4406e" style="stroke:#000000;stroke-width:0.8;"/>
      </defs>
      <g>
       <use style="stroke:#000000;stroke-width:0.8;" x="212.180223" xlink:href="#m5af3d4406e" y="420.3648"/>
      </g>
     </g>
     <g id="text_1">
      <!-- −10 -->
      <defs>
       <path d="M 10.59375 35.5 
L 73.1875 35.5 
L 73.1875 27.203125 
L 10.59375 27.203125 
z
" id="DejaVuSans-8722"/>
       <path d="M 12.40625 8.296875 
L 28.515625 8.296875 
L 28.515625 63.921875 
L 10.984375 60.40625 
L 10.984375 69.390625 
L 28.421875 72.90625 
L 38.28125 72.90625 
L 38.28125 8.296875 
L 54.390625 8.296875 
L 54.390625 0 
L 12.40625 0 
z
" id="DejaVuSans-49"/>
       <path d="M 31.78125 66.40625 
Q 24.171875 66.40625 20.328125 58.90625 
Q 16.5 51.421875 16.5 36.375 
Q 16.5 21.390625 20.328125 13.890625 
Q 24.171875 6.390625 31.78125 6.390625 
Q 39.453125 6.390625 43.28125 13.890625 
Q 47.125 21.390625 47.125 36.375 
Q 47.125 51.421875 43.28125 58.90625 
Q 39.453125 66.40625 31.78125 66.40625 
z
M 31.78125 74.21875 
Q 44.046875 74.21875 50.515625 64.515625 
Q 56.984375 54.828125 56.984375 36.375 
Q 56.984375 17.96875 50.515625 8.265625 
Q 44.046875 -1.421875 31.78125 -1.421875 
Q 19.53125 -1.421875 13.0625 8.265625 
Q 6.59375 17.96875 6.59375 36.375 
Q 6.59375 54.828125 13.0625 64.515625 
Q 19.53125 74.21875 31.78125 74.21875 
z
" id="DejaVuSans-48"/>
      </defs>
      <g transform="translate(201.627879 434.963237)scale(0.1 -0.1)">
       <use xlink:href="#DejaVuSans-8722"/>
       <use x="83.789062" xlink:href="#DejaVuSans-49"/>
       <use x="147.412109" xlink:href="#DejaVuSans-48"/>
      </g>
     </g>
    </g>
    <g id="xtick_2">
     <g id="line2d_2">
      <g>
       <use style="stroke:#000000;stroke-width:0.8;" x="255.088435" xlink:href="#m5af3d4406e" y="420.3648"/>
      </g>
     </g>
     <g id="text_2">
      <!-- −8 -->
      <defs>
       <path d="M 31.78125 34.625 
Q 24.75 34.625 20.71875 30.859375 
Q 16.703125 27.09375 16.703125 20.515625 
Q 16.703125 13.921875 20.71875 10.15625 
Q 24.75 6.390625 31.78125 6.390625 
Q 38.8125 6.390625 42.859375 10.171875 
Q 46.921875 13.96875 46.921875 20.515625 
Q 46.921875 27.09375 42.890625 30.859375 
Q 38.875 34.625 31.78125 34.625 
z
M 21.921875 38.8125 
Q 15.578125 40.375 12.03125 44.71875 
Q 8.5 49.078125 8.5 55.328125 
Q 8.5 64.0625 14.71875 69.140625 
Q 20.953125 74.21875 31.78125 74.21875 
Q 42.671875 74.21875 48.875 69.140625 
Q 55.078125 64.0625 55.078125 55.328125 
Q 55.078125 49.078125 51.53125 44.71875 
Q 48 40.375 41.703125 38.8125 
Q 48.828125 37.15625 52.796875 32.3125 
Q 56.78125 27.484375 56.78125 20.515625 
Q 56.78125 9.90625 50.3125 4.234375 
Q 43.84375 -1.421875 31.78125 -1.421875 
Q 19.734375 -1.421875 13.25 4.234375 
Q 6.78125 9.90625 6.78125 20.515625 
Q 6.78125 27.484375 10.78125 32.3125 
Q 14.796875 37.15625 21.921875 38.8125 
z
M 18.3125 54.390625 
Q 18.3125 48.734375 21.84375 45.5625 
Q 25.390625 42.390625 31.78125 42.390625 
Q 38.140625 42.390625 41.71875 45.5625 
Q 45.3125 48.734375 45.3125 54.390625 
Q 45.3125 60.0625 41.71875 63.234375 
Q 38.140625 66.40625 31.78125 66.40625 
Q 25.390625 66.40625 21.84375 63.234375 
Q 18.3125 60.0625 18.3125 54.390625 
z
" id="DejaVuSans-56"/>
      </defs>
      <g transform="translate(247.717341 434.963237)scale(0.1 -0.1)">
       <use xlink:href="#DejaVuSans-8722"/>
       <use x="83.789062" xlink:href="#DejaVuSans-56"/>
      </g>
     </g>
    </g>
    <g id="xtick_3">
     <g id="line2d_3">
      <g>
       <use style="stroke:#000000;stroke-width:0.8;" x="297.996647" xlink:href="#m5af3d4406e" y="420.3648"/>
      </g>
     </g>
     <g id="text_3">
      <!-- −6 -->
      <defs>
       <path d="M 33.015625 40.375 
Q 26.375 40.375 22.484375 35.828125 
Q 18.609375 31.296875 18.609375 23.390625 
Q 18.609375 15.53125 22.484375 10.953125 
Q 26.375 6.390625 33.015625 6.390625 
Q 39.65625 6.390625 43.53125 10.953125 
Q 47.40625 15.53125 47.40625 23.390625 
Q 47.40625 31.296875 43.53125 35.828125 
Q 39.65625 40.375 33.015625 40.375 
z
M 52.59375 71.296875 
L 52.59375 62.3125 
Q 48.875 64.0625 45.09375 64.984375 
Q 41.3125 65.921875 37.59375 65.921875 
Q 27.828125 65.921875 22.671875 59.328125 
Q 17.53125 52.734375 16.796875 39.40625 
Q 19.671875 43.65625 24.015625 45.921875 
Q 28.375 48.1875 33.59375 48.1875 
Q 44.578125 48.1875 50.953125 41.515625 
Q 57.328125 34.859375 57.328125 23.390625 
Q 57.328125 12.15625 50.6875 5.359375 
Q 44.046875 -1.421875 33.015625 -1.421875 
Q 20.359375 -1.421875 13.671875 8.265625 
Q 6.984375 17.96875 6.984375 36.375 
Q 6.984375 53.65625 15.1875 63.9375 
Q 23.390625 74.21875 37.203125 74.21875 
Q 40.921875 74.21875 44.703125 73.484375 
Q 48.484375 72.75 52.59375 71.296875 
z
" id="DejaVuSans-54"/>
      </defs>
      <g transform="translate(290.625553 434.963237)scale(0.1 -0.1)">
       <use xlink:href="#DejaVuSans-8722"/>
       <use x="83.789062" xlink:href="#DejaVuSans-54"/>
      </g>
     </g>
    </g>
    <g id="xtick_4">
     <g id="line2d_4">
      <g>
       <use style="stroke:#000000;stroke-width:0.8;" x="340.904859" xlink:href="#m5af3d4406e" y="420.3648"/>
      </g>
     </g>
     <g id="text_4">
      <!-- −4 -->
      <defs>
       <path d="M 37.796875 64.3125 
L 12.890625 25.390625 
L 37.796875 25.390625 
z
M 35.203125 72.90625 
L 47.609375 72.90625 
L 47.609375 25.390625 
L 58.015625 25.390625 
L 58.015625 17.1875 
L 47.609375 17.1875 
L 47.609375 0 
L 37.796875 0 
L 37.796875 17.1875 
L 4.890625 17.1875 
L 4.890625 26.703125 
z
" id="DejaVuSans-52"/>
      </defs>
      <g transform="translate(333.533765 434.963237)scale(0.1 -0.1)">
       <use xlink:href="#DejaVuSans-8722"/>
       <use x="83.789062" xlink:href="#DejaVuSans-52"/>
      </g>
     </g>
    </g>
    <g id="xtick_5">
     <g id="line2d_5">
      <g>
       <use style="stroke:#000000;stroke-width:0.8;" x="383.813071" xlink:href="#m5af3d4406e" y="420.3648"/>
      </g>
     </g>
     <g id="text_5">
      <!-- −2 -->
      <defs>
       <path d="M 19.1875 8.296875 
L 53.609375 8.296875 
L 53.609375 0 
L 7.328125 0 
L 7.328125 8.296875 
Q 12.9375 14.109375 22.625 23.890625 
Q 32.328125 33.6875 34.8125 36.53125 
Q 39.546875 41.84375 41.421875 45.53125 
Q 43.3125 49.21875 43.3125 52.78125 
Q 43.3125 58.59375 39.234375 62.25 
Q 35.15625 65.921875 28.609375 65.921875 
Q 23.96875 65.921875 18.8125 64.3125 
Q 13.671875 62.703125 7.8125 59.421875 
L 7.8125 69.390625 
Q 13.765625 71.78125 18.9375 73 
Q 24.125 74.21875 28.421875 74.21875 
Q 39.75 74.21875 46.484375 68.546875 
Q 53.21875 62.890625 53.21875 53.421875 
Q 53.21875 48.921875 51.53125 44.890625 
Q 49.859375 40.875 45.40625 35.40625 
Q 44.1875 33.984375 37.640625 27.21875 
Q 31.109375 20.453125 19.1875 8.296875 
z
" id="DejaVuSans-50"/>
      </defs>
      <g transform="translate(376.441977 434.963237)scale(0.1 -0.1)">
       <use xlink:href="#DejaVuSans-8722"/>
       <use x="83.789062" xlink:href="#DejaVuSans-50"/>
      </g>
     </g>
    </g>
    <g id="xtick_6">
     <g id="line2d_6">
      <g>
       <use style="stroke:#000000;stroke-width:0.8;" x="426.721283" xlink:href="#m5af3d4406e" y="420.3648"/>
      </g>
     </g>
     <g id="text_6">
      <!-- 0 -->
      <g transform="translate(423.540033 434.963237)scale(0.1 -0.1)">
       <use xlink:href="#DejaVuSans-48"/>
      </g>
     </g>
    </g>
    <g id="text_7">
     <!-- Palkkojen muutos toimialoittain [%] -->
     <defs>
      <path d="M 19.671875 64.796875 
L 19.671875 37.40625 
L 32.078125 37.40625 
Q 38.96875 37.40625 42.71875 40.96875 
Q 46.484375 44.53125 46.484375 51.125 
Q 46.484375 57.671875 42.71875 61.234375 
Q 38.96875 64.796875 32.078125 64.796875 
z
M 9.8125 72.90625 
L 32.078125 72.90625 
Q 44.34375 72.90625 50.609375 67.359375 
Q 56.890625 61.8125 56.890625 51.125 
Q 56.890625 40.328125 50.609375 34.8125 
Q 44.34375 29.296875 32.078125 29.296875 
L 19.671875 29.296875 
L 19.671875 0 
L 9.8125 0 
z
" id="DejaVuSans-80"/>
      <path d="M 34.28125 27.484375 
Q 23.390625 27.484375 19.1875 25 
Q 14.984375 22.515625 14.984375 16.5 
Q 14.984375 11.71875 18.140625 8.90625 
Q 21.296875 6.109375 26.703125 6.109375 
Q 34.1875 6.109375 38.703125 11.40625 
Q 43.21875 16.703125 43.21875 25.484375 
L 43.21875 27.484375 
z
M 52.203125 31.203125 
L 52.203125 0 
L 43.21875 0 
L 43.21875 8.296875 
Q 40.140625 3.328125 35.546875 0.953125 
Q 30.953125 -1.421875 24.3125 -1.421875 
Q 15.921875 -1.421875 10.953125 3.296875 
Q 6 8.015625 6 15.921875 
Q 6 25.140625 12.171875 29.828125 
Q 18.359375 34.515625 30.609375 34.515625 
L 43.21875 34.515625 
L 43.21875 35.40625 
Q 43.21875 41.609375 39.140625 45 
Q 35.0625 48.390625 27.6875 48.390625 
Q 23 48.390625 18.546875 47.265625 
Q 14.109375 46.140625 10.015625 43.890625 
L 10.015625 52.203125 
Q 14.9375 54.109375 19.578125 55.046875 
Q 24.21875 56 28.609375 56 
Q 40.484375 56 46.34375 49.84375 
Q 52.203125 43.703125 52.203125 31.203125 
z
" id="DejaVuSans-97"/>
      <path d="M 9.421875 75.984375 
L 18.40625 75.984375 
L 18.40625 0 
L 9.421875 0 
z
" id="DejaVuSans-108"/>
      <path d="M 9.078125 75.984375 
L 18.109375 75.984375 
L 18.109375 31.109375 
L 44.921875 54.6875 
L 56.390625 54.6875 
L 27.390625 29.109375 
L 57.625 0 
L 45.90625 0 
L 18.109375 26.703125 
L 18.109375 0 
L 9.078125 0 
z
" id="DejaVuSans-107"/>
      <path d="M 30.609375 48.390625 
Q 23.390625 48.390625 19.1875 42.75 
Q 14.984375 37.109375 14.984375 27.296875 
Q 14.984375 17.484375 19.15625 11.84375 
Q 23.34375 6.203125 30.609375 6.203125 
Q 37.796875 6.203125 41.984375 11.859375 
Q 46.1875 17.53125 46.1875 27.296875 
Q 46.1875 37.015625 41.984375 42.703125 
Q 37.796875 48.390625 30.609375 48.390625 
z
M 30.609375 56 
Q 42.328125 56 49.015625 48.375 
Q 55.71875 40.765625 55.71875 27.296875 
Q 55.71875 13.875 49.015625 6.21875 
Q 42.328125 -1.421875 30.609375 -1.421875 
Q 18.84375 -1.421875 12.171875 6.21875 
Q 5.515625 13.875 5.515625 27.296875 
Q 5.515625 40.765625 12.171875 48.375 
Q 18.84375 56 30.609375 56 
z
" id="DejaVuSans-111"/>
      <path d="M 9.421875 54.6875 
L 18.40625 54.6875 
L 18.40625 -0.984375 
Q 18.40625 -11.421875 14.421875 -16.109375 
Q 10.453125 -20.796875 1.609375 -20.796875 
L -1.8125 -20.796875 
L -1.8125 -13.1875 
L 0.59375 -13.1875 
Q 5.71875 -13.1875 7.5625 -10.8125 
Q 9.421875 -8.453125 9.421875 -0.984375 
z
M 9.421875 75.984375 
L 18.40625 75.984375 
L 18.40625 64.59375 
L 9.421875 64.59375 
z
" id="DejaVuSans-106"/>
      <path d="M 56.203125 29.59375 
L 56.203125 25.203125 
L 14.890625 25.203125 
Q 15.484375 15.921875 20.484375 11.0625 
Q 25.484375 6.203125 34.421875 6.203125 
Q 39.59375 6.203125 44.453125 7.46875 
Q 49.3125 8.734375 54.109375 11.28125 
L 54.109375 2.78125 
Q 49.265625 0.734375 44.1875 -0.34375 
Q 39.109375 -1.421875 33.890625 -1.421875 
Q 20.796875 -1.421875 13.15625 6.1875 
Q 5.515625 13.8125 5.515625 26.8125 
Q 5.515625 40.234375 12.765625 48.109375 
Q 20.015625 56 32.328125 56 
Q 43.359375 56 49.78125 48.890625 
Q 56.203125 41.796875 56.203125 29.59375 
z
M 47.21875 32.234375 
Q 47.125 39.59375 43.09375 43.984375 
Q 39.0625 48.390625 32.421875 48.390625 
Q 24.90625 48.390625 20.390625 44.140625 
Q 15.875 39.890625 15.1875 32.171875 
z
" id="DejaVuSans-101"/>
      <path d="M 54.890625 33.015625 
L 54.890625 0 
L 45.90625 0 
L 45.90625 32.71875 
Q 45.90625 40.484375 42.875 44.328125 
Q 39.84375 48.1875 33.796875 48.1875 
Q 26.515625 48.1875 22.3125 43.546875 
Q 18.109375 38.921875 18.109375 30.90625 
L 18.109375 0 
L 9.078125 0 
L 9.078125 54.6875 
L 18.109375 54.6875 
L 18.109375 46.1875 
Q 21.34375 51.125 25.703125 53.5625 
Q 30.078125 56 35.796875 56 
Q 45.21875 56 50.046875 50.171875 
Q 54.890625 44.34375 54.890625 33.015625 
z
" id="DejaVuSans-110"/>
      <path id="DejaVuSans-32"/>
      <path d="M 52 44.1875 
Q 55.375 50.25 60.0625 53.125 
Q 64.75 56 71.09375 56 
Q 79.640625 56 84.28125 50.015625 
Q 88.921875 44.046875 88.921875 33.015625 
L 88.921875 0 
L 79.890625 0 
L 79.890625 32.71875 
Q 79.890625 40.578125 77.09375 44.375 
Q 74.3125 48.1875 68.609375 48.1875 
Q 61.625 48.1875 57.5625 43.546875 
Q 53.515625 38.921875 53.515625 30.90625 
L 53.515625 0 
L 44.484375 0 
L 44.484375 32.71875 
Q 44.484375 40.625 41.703125 44.40625 
Q 38.921875 48.1875 33.109375 48.1875 
Q 26.21875 48.1875 22.15625 43.53125 
Q 18.109375 38.875 18.109375 30.90625 
L 18.109375 0 
L 9.078125 0 
L 9.078125 54.6875 
L 18.109375 54.6875 
L 18.109375 46.1875 
Q 21.1875 51.21875 25.484375 53.609375 
Q 29.78125 56 35.6875 56 
Q 41.65625 56 45.828125 52.96875 
Q 50 49.953125 52 44.1875 
z
" id="DejaVuSans-109"/>
      <path d="M 8.5 21.578125 
L 8.5 54.6875 
L 17.484375 54.6875 
L 17.484375 21.921875 
Q 17.484375 14.15625 20.5 10.265625 
Q 23.53125 6.390625 29.59375 6.390625 
Q 36.859375 6.390625 41.078125 11.03125 
Q 45.3125 15.671875 45.3125 23.6875 
L 45.3125 54.6875 
L 54.296875 54.6875 
L 54.296875 0 
L 45.3125 0 
L 45.3125 8.40625 
Q 42.046875 3.421875 37.71875 1 
Q 33.40625 -1.421875 27.6875 -1.421875 
Q 18.265625 -1.421875 13.375 4.4375 
Q 8.5 10.296875 8.5 21.578125 
z
M 31.109375 56 
z
" id="DejaVuSans-117"/>
      <path d="M 18.3125 70.21875 
L 18.3125 54.6875 
L 36.8125 54.6875 
L 36.8125 47.703125 
L 18.3125 47.703125 
L 18.3125 18.015625 
Q 18.3125 11.328125 20.140625 9.421875 
Q 21.96875 7.515625 27.59375 7.515625 
L 36.8125 7.515625 
L 36.8125 0 
L 27.59375 0 
Q 17.1875 0 13.234375 3.875 
Q 9.28125 7.765625 9.28125 18.015625 
L 9.28125 47.703125 
L 2.6875 47.703125 
L 2.6875 54.6875 
L 9.28125 54.6875 
L 9.28125 70.21875 
z
" id="DejaVuSans-116"/>
      <path d="M 44.28125 53.078125 
L 44.28125 44.578125 
Q 40.484375 46.53125 36.375 47.5 
Q 32.28125 48.484375 27.875 48.484375 
Q 21.1875 48.484375 17.84375 46.4375 
Q 14.5 44.390625 14.5 40.28125 
Q 14.5 37.15625 16.890625 35.375 
Q 19.28125 33.59375 26.515625 31.984375 
L 29.59375 31.296875 
Q 39.15625 29.25 43.1875 25.515625 
Q 47.21875 21.78125 47.21875 15.09375 
Q 47.21875 7.46875 41.1875 3.015625 
Q 35.15625 -1.421875 24.609375 -1.421875 
Q 20.21875 -1.421875 15.453125 -0.5625 
Q 10.6875 0.296875 5.421875 2 
L 5.421875 11.28125 
Q 10.40625 8.6875 15.234375 7.390625 
Q 20.0625 6.109375 24.8125 6.109375 
Q 31.15625 6.109375 34.5625 8.28125 
Q 37.984375 10.453125 37.984375 14.40625 
Q 37.984375 18.0625 35.515625 20.015625 
Q 33.0625 21.96875 24.703125 23.78125 
L 21.578125 24.515625 
Q 13.234375 26.265625 9.515625 29.90625 
Q 5.8125 33.546875 5.8125 39.890625 
Q 5.8125 47.609375 11.28125 51.796875 
Q 16.75 56 26.8125 56 
Q 31.78125 56 36.171875 55.265625 
Q 40.578125 54.546875 44.28125 53.078125 
z
" id="DejaVuSans-115"/>
      <path d="M 9.421875 54.6875 
L 18.40625 54.6875 
L 18.40625 0 
L 9.421875 0 
z
M 9.421875 75.984375 
L 18.40625 75.984375 
L 18.40625 64.59375 
L 9.421875 64.59375 
z
" id="DejaVuSans-105"/>
      <path d="M 8.59375 75.984375 
L 29.296875 75.984375 
L 29.296875 69 
L 17.578125 69 
L 17.578125 -6.203125 
L 29.296875 -6.203125 
L 29.296875 -13.1875 
L 8.59375 -13.1875 
z
" id="DejaVuSans-91"/>
      <path d="M 72.703125 32.078125 
Q 68.453125 32.078125 66.03125 28.46875 
Q 63.625 24.859375 63.625 18.40625 
Q 63.625 12.0625 66.03125 8.421875 
Q 68.453125 4.78125 72.703125 4.78125 
Q 76.859375 4.78125 79.265625 8.421875 
Q 81.6875 12.0625 81.6875 18.40625 
Q 81.6875 24.8125 79.265625 28.4375 
Q 76.859375 32.078125 72.703125 32.078125 
z
M 72.703125 38.28125 
Q 80.421875 38.28125 84.953125 32.90625 
Q 89.5 27.546875 89.5 18.40625 
Q 89.5 9.28125 84.9375 3.921875 
Q 80.375 -1.421875 72.703125 -1.421875 
Q 64.890625 -1.421875 60.34375 3.921875 
Q 55.8125 9.28125 55.8125 18.40625 
Q 55.8125 27.59375 60.375 32.9375 
Q 64.9375 38.28125 72.703125 38.28125 
z
M 22.3125 68.015625 
Q 18.109375 68.015625 15.6875 64.375 
Q 13.28125 60.75 13.28125 54.390625 
Q 13.28125 47.953125 15.671875 44.328125 
Q 18.0625 40.71875 22.3125 40.71875 
Q 26.5625 40.71875 28.96875 44.328125 
Q 31.390625 47.953125 31.390625 54.390625 
Q 31.390625 60.6875 28.953125 64.34375 
Q 26.515625 68.015625 22.3125 68.015625 
z
M 66.40625 74.21875 
L 74.21875 74.21875 
L 28.609375 -1.421875 
L 20.796875 -1.421875 
z
M 22.3125 74.21875 
Q 30.03125 74.21875 34.609375 68.875 
Q 39.203125 63.53125 39.203125 54.390625 
Q 39.203125 45.171875 34.640625 39.84375 
Q 30.078125 34.515625 22.3125 34.515625 
Q 14.546875 34.515625 10.03125 39.859375 
Q 5.515625 45.21875 5.515625 54.390625 
Q 5.515625 63.484375 10.046875 68.84375 
Q 14.59375 74.21875 22.3125 74.21875 
z
" id="DejaVuSans-37"/>
      <path d="M 30.421875 75.984375 
L 30.421875 -13.1875 
L 9.71875 -13.1875 
L 9.71875 -6.203125 
L 21.390625 -6.203125 
L 21.390625 69 
L 9.71875 69 
L 9.71875 75.984375 
z
" id="DejaVuSans-93"/>
     </defs>
     <g transform="translate(247.181844 448.641363)scale(0.1 -0.1)">
      <use xlink:href="#DejaVuSans-80"/>
      <use x="60.240234" xlink:href="#DejaVuSans-97"/>
      <use x="121.519531" xlink:href="#DejaVuSans-108"/>
      <use x="149.302734" xlink:href="#DejaVuSans-107"/>
      <use x="207.212891" xlink:href="#DejaVuSans-107"/>
      <use x="265.076172" xlink:href="#DejaVuSans-111"/>
      <use x="326.257812" xlink:href="#DejaVuSans-106"/>
      <use x="354.041016" xlink:href="#DejaVuSans-101"/>
      <use x="415.564453" xlink:href="#DejaVuSans-110"/>
      <use x="478.943359" xlink:href="#DejaVuSans-32"/>
      <use x="510.730469" xlink:href="#DejaVuSans-109"/>
      <use x="608.142578" xlink:href="#DejaVuSans-117"/>
      <use x="671.521484" xlink:href="#DejaVuSans-117"/>
      <use x="734.900391" xlink:href="#DejaVuSans-116"/>
      <use x="774.109375" xlink:href="#DejaVuSans-111"/>
      <use x="835.291016" xlink:href="#DejaVuSans-115"/>
      <use x="887.390625" xlink:href="#DejaVuSans-32"/>
      <use x="919.177734" xlink:href="#DejaVuSans-116"/>
      <use x="958.386719" xlink:href="#DejaVuSans-111"/>
      <use x="1019.568359" xlink:href="#DejaVuSans-105"/>
      <use x="1047.351562" xlink:href="#DejaVuSans-109"/>
      <use x="1144.763672" xlink:href="#DejaVuSans-105"/>
      <use x="1172.546875" xlink:href="#DejaVuSans-97"/>
      <use x="1233.826172" xlink:href="#DejaVuSans-108"/>
      <use x="1261.609375" xlink:href="#DejaVuSans-111"/>
      <use x="1322.791016" xlink:href="#DejaVuSans-105"/>
      <use x="1350.574219" xlink:href="#DejaVuSans-116"/>
      <use x="1389.783203" xlink:href="#DejaVuSans-116"/>
      <use x="1428.992188" xlink:href="#DejaVuSans-97"/>
      <use x="1490.271484" xlink:href="#DejaVuSans-105"/>
      <use x="1518.054688" xlink:href="#DejaVuSans-110"/>
      <use x="1581.433594" xlink:href="#DejaVuSans-32"/>
      <use x="1613.220703" xlink:href="#DejaVuSans-91"/>
      <use x="1652.234375" xlink:href="#DejaVuSans-37"/>
      <use x="1747.253906" xlink:href="#DejaVuSans-93"/>
     </g>
    </g>
   </g>
   <g id="matplotlib.axis_2">
    <g id="ytick_1">
     <g id="line2d_7">
      <defs>
       <path d="M 0 0 
L -3.5 0 
" id="m38417d6d8f" style="stroke:#000000;stroke-width:0.8;"/>
      </defs>
      <g>
       <use style="stroke:#000000;stroke-width:0.8;" x="207.072" xlink:href="#m38417d6d8f" y="394.250296"/>
      </g>
     </g>
     <g id="text_8">
      <!-- Yhteensä -->
      <defs>
       <path d="M -0.203125 72.90625 
L 10.40625 72.90625 
L 30.609375 42.921875 
L 50.6875 72.90625 
L 61.28125 72.90625 
L 35.5 34.71875 
L 35.5 0 
L 25.59375 0 
L 25.59375 34.71875 
z
" id="DejaVuSans-89"/>
       <path d="M 54.890625 33.015625 
L 54.890625 0 
L 45.90625 0 
L 45.90625 32.71875 
Q 45.90625 40.484375 42.875 44.328125 
Q 39.84375 48.1875 33.796875 48.1875 
Q 26.515625 48.1875 22.3125 43.546875 
Q 18.109375 38.921875 18.109375 30.90625 
L 18.109375 0 
L 9.078125 0 
L 9.078125 75.984375 
L 18.109375 75.984375 
L 18.109375 46.1875 
Q 21.34375 51.125 25.703125 53.5625 
Q 30.078125 56 35.796875 56 
Q 45.21875 56 50.046875 50.171875 
Q 54.890625 44.34375 54.890625 33.015625 
z
" id="DejaVuSans-104"/>
       <path d="M 34.28125 27.484375 
Q 23.390625 27.484375 19.1875 25 
Q 14.984375 22.515625 14.984375 16.5 
Q 14.984375 11.71875 18.140625 8.90625 
Q 21.296875 6.109375 26.703125 6.109375 
Q 34.1875 6.109375 38.703125 11.40625 
Q 43.21875 16.703125 43.21875 25.484375 
L 43.21875 27.484375 
z
M 52.203125 31.203125 
L 52.203125 0 
L 43.21875 0 
L 43.21875 8.296875 
Q 40.140625 3.328125 35.546875 0.953125 
Q 30.953125 -1.421875 24.3125 -1.421875 
Q 15.921875 -1.421875 10.953125 3.296875 
Q 6 8.015625 6 15.921875 
Q 6 25.140625 12.171875 29.828125 
Q 18.359375 34.515625 30.609375 34.515625 
L 43.21875 34.515625 
L 43.21875 35.40625 
Q 43.21875 41.609375 39.140625 45 
Q 35.0625 48.390625 27.6875 48.390625 
Q 23 48.390625 18.546875 47.265625 
Q 14.109375 46.140625 10.015625 43.890625 
L 10.015625 52.203125 
Q 14.9375 54.109375 19.578125 55.046875 
Q 24.21875 56 28.609375 56 
Q 40.484375 56 46.34375 49.84375 
Q 52.203125 43.703125 52.203125 31.203125 
z
M 33.59375 75.78125 
L 43.5 75.78125 
L 43.5 65.921875 
L 33.59375 65.921875 
z
M 14.5 75.78125 
L 24.421875 75.78125 
L 24.421875 65.921875 
L 14.5 65.921875 
z
" id="DejaVuSans-228"/>
      </defs>
      <g transform="translate(172.263875 396.529827)scale(0.06 -0.06)">
       <use xlink:href="#DejaVuSans-89"/>
       <use x="61.083984" xlink:href="#DejaVuSans-104"/>
       <use x="124.462891" xlink:href="#DejaVuSans-116"/>
       <use x="163.671875" xlink:href="#DejaVuSans-101"/>
       <use x="225.195312" xlink:href="#DejaVuSans-101"/>
       <use x="286.71875" xlink:href="#DejaVuSans-110"/>
       <use x="350.097656" xlink:href="#DejaVuSans-115"/>
       <use x="402.197266" xlink:href="#DejaVuSans-228"/>
      </g>
     </g>
    </g>
    <g id="ytick_2">
     <g id="line2d_8">
      <g>
       <use style="stroke:#000000;stroke-width:0.8;" x="207.072" xlink:href="#m38417d6d8f" y="370.292035"/>
      </g>
     </g>
     <g id="text_9">
      <!-- Toimialat yhteensä, -->
      <defs>
       <path d="M -0.296875 72.90625 
L 61.375 72.90625 
L 61.375 64.59375 
L 35.5 64.59375 
L 35.5 0 
L 25.59375 0 
L 25.59375 64.59375 
L -0.296875 64.59375 
z
" id="DejaVuSans-84"/>
       <path d="M 32.171875 -5.078125 
Q 28.375 -14.84375 24.75 -17.8125 
Q 21.140625 -20.796875 15.09375 -20.796875 
L 7.90625 -20.796875 
L 7.90625 -13.28125 
L 13.1875 -13.28125 
Q 16.890625 -13.28125 18.9375 -11.515625 
Q 21 -9.765625 23.484375 -3.21875 
L 25.09375 0.875 
L 2.984375 54.6875 
L 12.5 54.6875 
L 29.59375 11.921875 
L 46.6875 54.6875 
L 56.203125 54.6875 
z
" id="DejaVuSans-121"/>
       <path d="M 11.71875 12.40625 
L 22.015625 12.40625 
L 22.015625 4 
L 14.015625 -11.625 
L 7.71875 -11.625 
L 11.71875 4 
z
" id="DejaVuSans-44"/>
      </defs>
      <g transform="translate(140.692625 369.668129)scale(0.06 -0.06)">
       <use xlink:href="#DejaVuSans-84"/>
       <use x="60.818359" xlink:href="#DejaVuSans-111"/>
       <use x="122" xlink:href="#DejaVuSans-105"/>
       <use x="149.783203" xlink:href="#DejaVuSans-109"/>
       <use x="247.195312" xlink:href="#DejaVuSans-105"/>
       <use x="274.978516" xlink:href="#DejaVuSans-97"/>
       <use x="336.257812" xlink:href="#DejaVuSans-108"/>
       <use x="364.041016" xlink:href="#DejaVuSans-97"/>
       <use x="425.320312" xlink:href="#DejaVuSans-116"/>
       <use x="464.529297" xlink:href="#DejaVuSans-32"/>
       <use x="496.316406" xlink:href="#DejaVuSans-121"/>
       <use x="555.496094" xlink:href="#DejaVuSans-104"/>
       <use x="618.875" xlink:href="#DejaVuSans-116"/>
       <use x="658.083984" xlink:href="#DejaVuSans-101"/>
       <use x="719.607422" xlink:href="#DejaVuSans-101"/>
       <use x="781.130859" xlink:href="#DejaVuSans-110"/>
       <use x="844.509766" xlink:href="#DejaVuSans-115"/>
       <use x="896.609375" xlink:href="#DejaVuSans-228"/>
       <use x="957.888672" xlink:href="#DejaVuSans-44"/>
      </g>
      <!-- yksityiset sektorit -->
      <defs>
       <path d="M 41.109375 46.296875 
Q 39.59375 47.171875 37.8125 47.578125 
Q 36.03125 48 33.890625 48 
Q 26.265625 48 22.1875 43.046875 
Q 18.109375 38.09375 18.109375 28.8125 
L 18.109375 0 
L 9.078125 0 
L 9.078125 54.6875 
L 18.109375 54.6875 
L 18.109375 46.1875 
Q 20.953125 51.171875 25.484375 53.578125 
Q 30.03125 56 36.53125 56 
Q 37.453125 56 38.578125 55.875 
Q 39.703125 55.765625 41.0625 55.515625 
z
" id="DejaVuSans-114"/>
      </defs>
      <g transform="translate(146.806063 376.386816)scale(0.06 -0.06)">
       <use xlink:href="#DejaVuSans-121"/>
       <use x="59.179688" xlink:href="#DejaVuSans-107"/>
       <use x="117.089844" xlink:href="#DejaVuSans-115"/>
       <use x="169.189453" xlink:href="#DejaVuSans-105"/>
       <use x="196.972656" xlink:href="#DejaVuSans-116"/>
       <use x="236.181641" xlink:href="#DejaVuSans-121"/>
       <use x="295.361328" xlink:href="#DejaVuSans-105"/>
       <use x="323.144531" xlink:href="#DejaVuSans-115"/>
       <use x="375.244141" xlink:href="#DejaVuSans-101"/>
       <use x="436.767578" xlink:href="#DejaVuSans-116"/>
       <use x="475.976562" xlink:href="#DejaVuSans-32"/>
       <use x="507.763672" xlink:href="#DejaVuSans-115"/>
       <use x="559.863281" xlink:href="#DejaVuSans-101"/>
       <use x="621.386719" xlink:href="#DejaVuSans-107"/>
       <use x="679.296875" xlink:href="#DejaVuSans-116"/>
       <use x="718.505859" xlink:href="#DejaVuSans-111"/>
       <use x="779.6875" xlink:href="#DejaVuSans-114"/>
       <use x="820.800781" xlink:href="#DejaVuSans-105"/>
       <use x="848.583984" xlink:href="#DejaVuSans-116"/>
      </g>
     </g>
    </g>
    <g id="ytick_3">
     <g id="line2d_9">
      <g>
       <use style="stroke:#000000;stroke-width:0.8;" x="207.072" xlink:href="#m38417d6d8f" y="346.333774"/>
      </g>
     </g>
     <g id="text_10">
      <!-- Toimialat yhteensä, -->
      <g transform="translate(140.692625 345.709868)scale(0.06 -0.06)">
       <use xlink:href="#DejaVuSans-84"/>
       <use x="60.818359" xlink:href="#DejaVuSans-111"/>
       <use x="122" xlink:href="#DejaVuSans-105"/>
       <use x="149.783203" xlink:href="#DejaVuSans-109"/>
       <use x="247.195312" xlink:href="#DejaVuSans-105"/>
       <use x="274.978516" xlink:href="#DejaVuSans-97"/>
       <use x="336.257812" xlink:href="#DejaVuSans-108"/>
       <use x="364.041016" xlink:href="#DejaVuSans-97"/>
       <use x="425.320312" xlink:href="#DejaVuSans-116"/>
       <use x="464.529297" xlink:href="#DejaVuSans-32"/>
       <use x="496.316406" xlink:href="#DejaVuSans-121"/>
       <use x="555.496094" xlink:href="#DejaVuSans-104"/>
       <use x="618.875" xlink:href="#DejaVuSans-116"/>
       <use x="658.083984" xlink:href="#DejaVuSans-101"/>
       <use x="719.607422" xlink:href="#DejaVuSans-101"/>
       <use x="781.130859" xlink:href="#DejaVuSans-110"/>
       <use x="844.509766" xlink:href="#DejaVuSans-115"/>
       <use x="896.609375" xlink:href="#DejaVuSans-228"/>
       <use x="957.888672" xlink:href="#DejaVuSans-44"/>
      </g>
      <!-- julkiset sektorit -->
      <g transform="translate(153.917 352.428555)scale(0.06 -0.06)">
       <use xlink:href="#DejaVuSans-106"/>
       <use x="27.783203" xlink:href="#DejaVuSans-117"/>
       <use x="91.162109" xlink:href="#DejaVuSans-108"/>
       <use x="118.945312" xlink:href="#DejaVuSans-107"/>
       <use x="176.855469" xlink:href="#DejaVuSans-105"/>
       <use x="204.638672" xlink:href="#DejaVuSans-115"/>
       <use x="256.738281" xlink:href="#DejaVuSans-101"/>
       <use x="318.261719" xlink:href="#DejaVuSans-116"/>
       <use x="357.470703" xlink:href="#DejaVuSans-32"/>
       <use x="389.257812" xlink:href="#DejaVuSans-115"/>
       <use x="441.357422" xlink:href="#DejaVuSans-101"/>
       <use x="502.880859" xlink:href="#DejaVuSans-107"/>
       <use x="560.791016" xlink:href="#DejaVuSans-116"/>
       <use x="600" xlink:href="#DejaVuSans-111"/>
       <use x="661.181641" xlink:href="#DejaVuSans-114"/>
       <use x="702.294922" xlink:href="#DejaVuSans-105"/>
       <use x="730.078125" xlink:href="#DejaVuSans-116"/>
      </g>
     </g>
    </g>
    <g id="ytick_4">
     <g id="line2d_10">
      <g>
       <use style="stroke:#000000;stroke-width:0.8;" x="207.072" xlink:href="#m38417d6d8f" y="322.375513"/>
      </g>
     </g>
     <g id="text_11">
      <!-- Maatalous, -->
      <defs>
       <path d="M 9.8125 72.90625 
L 24.515625 72.90625 
L 43.109375 23.296875 
L 61.8125 72.90625 
L 76.515625 72.90625 
L 76.515625 0 
L 66.890625 0 
L 66.890625 64.015625 
L 48.09375 14.015625 
L 38.1875 14.015625 
L 19.390625 64.015625 
L 19.390625 0 
L 9.8125 0 
z
" id="DejaVuSans-77"/>
      </defs>
      <g transform="translate(167.339188 318.392263)scale(0.06 -0.06)">
       <use xlink:href="#DejaVuSans-77"/>
       <use x="86.279297" xlink:href="#DejaVuSans-97"/>
       <use x="147.558594" xlink:href="#DejaVuSans-97"/>
       <use x="208.837891" xlink:href="#DejaVuSans-116"/>
       <use x="248.046875" xlink:href="#DejaVuSans-97"/>
       <use x="309.326172" xlink:href="#DejaVuSans-108"/>
       <use x="337.109375" xlink:href="#DejaVuSans-111"/>
       <use x="398.291016" xlink:href="#DejaVuSans-117"/>
       <use x="461.669922" xlink:href="#DejaVuSans-115"/>
       <use x="513.769531" xlink:href="#DejaVuSans-44"/>
      </g>
      <!-- metsätalous ja -->
      <g transform="translate(155.835125 325.110951)scale(0.06 -0.06)">
       <use xlink:href="#DejaVuSans-109"/>
       <use x="97.412109" xlink:href="#DejaVuSans-101"/>
       <use x="158.935547" xlink:href="#DejaVuSans-116"/>
       <use x="198.144531" xlink:href="#DejaVuSans-115"/>
       <use x="250.244141" xlink:href="#DejaVuSans-228"/>
       <use x="311.523438" xlink:href="#DejaVuSans-116"/>
       <use x="350.732422" xlink:href="#DejaVuSans-97"/>
       <use x="412.011719" xlink:href="#DejaVuSans-108"/>
       <use x="439.794922" xlink:href="#DejaVuSans-111"/>
       <use x="500.976562" xlink:href="#DejaVuSans-117"/>
       <use x="564.355469" xlink:href="#DejaVuSans-115"/>
       <use x="616.455078" xlink:href="#DejaVuSans-32"/>
       <use x="648.242188" xlink:href="#DejaVuSans-106"/>
       <use x="676.025391" xlink:href="#DejaVuSans-97"/>
      </g>
      <!-- kalatalous -->
      <g transform="translate(169.282625 331.829638)scale(0.06 -0.06)">
       <use xlink:href="#DejaVuSans-107"/>
       <use x="57.894531" xlink:href="#DejaVuSans-97"/>
       <use x="119.173828" xlink:href="#DejaVuSans-108"/>
       <use x="146.957031" xlink:href="#DejaVuSans-97"/>
       <use x="208.236328" xlink:href="#DejaVuSans-116"/>
       <use x="247.445312" xlink:href="#DejaVuSans-97"/>
       <use x="308.724609" xlink:href="#DejaVuSans-108"/>
       <use x="336.507812" xlink:href="#DejaVuSans-111"/>
       <use x="397.689453" xlink:href="#DejaVuSans-117"/>
       <use x="461.068359" xlink:href="#DejaVuSans-115"/>
      </g>
     </g>
    </g>
    <g id="ytick_5">
     <g id="line2d_11">
      <g>
       <use style="stroke:#000000;stroke-width:0.8;" x="207.072" xlink:href="#m38417d6d8f" y="298.417252"/>
      </g>
     </g>
     <g id="text_12">
      <!-- Koko teollisuus -->
      <defs>
       <path d="M 9.8125 72.90625 
L 19.671875 72.90625 
L 19.671875 42.09375 
L 52.390625 72.90625 
L 65.09375 72.90625 
L 28.90625 38.921875 
L 67.671875 0 
L 54.6875 0 
L 19.671875 35.109375 
L 19.671875 0 
L 9.8125 0 
z
" id="DejaVuSans-75"/>
      </defs>
      <g transform="translate(154.848875 300.696783)scale(0.06 -0.06)">
       <use xlink:href="#DejaVuSans-75"/>
       <use x="65.498047" xlink:href="#DejaVuSans-111"/>
       <use x="126.679688" xlink:href="#DejaVuSans-107"/>
       <use x="184.542969" xlink:href="#DejaVuSans-111"/>
       <use x="245.724609" xlink:href="#DejaVuSans-32"/>
       <use x="277.511719" xlink:href="#DejaVuSans-116"/>
       <use x="316.720703" xlink:href="#DejaVuSans-101"/>
       <use x="378.244141" xlink:href="#DejaVuSans-111"/>
       <use x="439.425781" xlink:href="#DejaVuSans-108"/>
       <use x="467.208984" xlink:href="#DejaVuSans-108"/>
       <use x="494.992188" xlink:href="#DejaVuSans-105"/>
       <use x="522.775391" xlink:href="#DejaVuSans-115"/>
       <use x="574.875" xlink:href="#DejaVuSans-117"/>
       <use x="638.253906" xlink:href="#DejaVuSans-117"/>
       <use x="701.632812" xlink:href="#DejaVuSans-115"/>
      </g>
     </g>
    </g>
    <g id="ytick_6">
     <g id="line2d_12">
      <g>
       <use style="stroke:#000000;stroke-width:0.8;" x="207.072" xlink:href="#m38417d6d8f" y="274.458991"/>
      </g>
     </g>
     <g id="text_13">
      <!-- Teollisuus -->
      <g transform="translate(170.20325 276.738523)scale(0.06 -0.06)">
       <use xlink:href="#DejaVuSans-84"/>
       <use x="60.818359" xlink:href="#DejaVuSans-101"/>
       <use x="122.341797" xlink:href="#DejaVuSans-111"/>
       <use x="183.523438" xlink:href="#DejaVuSans-108"/>
       <use x="211.306641" xlink:href="#DejaVuSans-108"/>
       <use x="239.089844" xlink:href="#DejaVuSans-105"/>
       <use x="266.873047" xlink:href="#DejaVuSans-115"/>
       <use x="318.972656" xlink:href="#DejaVuSans-117"/>
       <use x="382.351562" xlink:href="#DejaVuSans-117"/>
       <use x="445.730469" xlink:href="#DejaVuSans-115"/>
      </g>
     </g>
    </g>
    <g id="ytick_7">
     <g id="line2d_13">
      <g>
       <use style="stroke:#000000;stroke-width:0.8;" x="207.072" xlink:href="#m38417d6d8f" y="250.50073"/>
      </g>
     </g>
     <g id="text_14">
      <!-- Rakentaminen -->
      <defs>
       <path d="M 44.390625 34.1875 
Q 47.5625 33.109375 50.5625 29.59375 
Q 53.5625 26.078125 56.59375 19.921875 
L 66.609375 0 
L 56 0 
L 46.6875 18.703125 
Q 43.0625 26.03125 39.671875 28.421875 
Q 36.28125 30.8125 30.421875 30.8125 
L 19.671875 30.8125 
L 19.671875 0 
L 9.8125 0 
L 9.8125 72.90625 
L 32.078125 72.90625 
Q 44.578125 72.90625 50.734375 67.671875 
Q 56.890625 62.453125 56.890625 51.90625 
Q 56.890625 45.015625 53.6875 40.46875 
Q 50.484375 35.9375 44.390625 34.1875 
z
M 19.671875 64.796875 
L 19.671875 38.921875 
L 32.078125 38.921875 
Q 39.203125 38.921875 42.84375 42.21875 
Q 46.484375 45.515625 46.484375 51.90625 
Q 46.484375 58.296875 42.84375 61.546875 
Q 39.203125 64.796875 32.078125 64.796875 
z
" id="DejaVuSans-82"/>
      </defs>
      <g transform="translate(156.424813 252.780262)scale(0.06 -0.06)">
       <use xlink:href="#DejaVuSans-82"/>
       <use x="69.451172" xlink:href="#DejaVuSans-97"/>
       <use x="130.730469" xlink:href="#DejaVuSans-107"/>
       <use x="188.59375" xlink:href="#DejaVuSans-101"/>
       <use x="250.117188" xlink:href="#DejaVuSans-110"/>
       <use x="313.496094" xlink:href="#DejaVuSans-116"/>
       <use x="352.705078" xlink:href="#DejaVuSans-97"/>
       <use x="413.984375" xlink:href="#DejaVuSans-109"/>
       <use x="511.396484" xlink:href="#DejaVuSans-105"/>
       <use x="539.179688" xlink:href="#DejaVuSans-110"/>
       <use x="602.558594" xlink:href="#DejaVuSans-101"/>
       <use x="664.082031" xlink:href="#DejaVuSans-110"/>
      </g>
     </g>
    </g>
    <g id="ytick_8">
     <g id="line2d_14">
      <g>
       <use style="stroke:#000000;stroke-width:0.8;" x="207.072" xlink:href="#m38417d6d8f" y="226.54247"/>
      </g>
     </g>
     <g id="text_15">
      <!-- Kauppa, kuljetus ja -->
      <defs>
       <path d="M 18.109375 8.203125 
L 18.109375 -20.796875 
L 9.078125 -20.796875 
L 9.078125 54.6875 
L 18.109375 54.6875 
L 18.109375 46.390625 
Q 20.953125 51.265625 25.265625 53.625 
Q 29.59375 56 35.59375 56 
Q 45.5625 56 51.78125 48.09375 
Q 58.015625 40.1875 58.015625 27.296875 
Q 58.015625 14.40625 51.78125 6.484375 
Q 45.5625 -1.421875 35.59375 -1.421875 
Q 29.59375 -1.421875 25.265625 0.953125 
Q 20.953125 3.328125 18.109375 8.203125 
z
M 48.6875 27.296875 
Q 48.6875 37.203125 44.609375 42.84375 
Q 40.53125 48.484375 33.40625 48.484375 
Q 26.265625 48.484375 22.1875 42.84375 
Q 18.109375 37.203125 18.109375 27.296875 
Q 18.109375 17.390625 22.1875 11.75 
Q 26.265625 6.109375 33.40625 6.109375 
Q 40.53125 6.109375 44.609375 11.75 
Q 48.6875 17.390625 48.6875 27.296875 
z
" id="DejaVuSans-112"/>
      </defs>
      <g transform="translate(142.7195 219.199876)scale(0.06 -0.06)">
       <use xlink:href="#DejaVuSans-75"/>
       <use x="65.560547" xlink:href="#DejaVuSans-97"/>
       <use x="126.839844" xlink:href="#DejaVuSans-117"/>
       <use x="190.21875" xlink:href="#DejaVuSans-112"/>
       <use x="253.695312" xlink:href="#DejaVuSans-112"/>
       <use x="317.171875" xlink:href="#DejaVuSans-97"/>
       <use x="378.451172" xlink:href="#DejaVuSans-44"/>
       <use x="410.238281" xlink:href="#DejaVuSans-32"/>
       <use x="442.025391" xlink:href="#DejaVuSans-107"/>
       <use x="499.888672" xlink:href="#DejaVuSans-117"/>
       <use x="563.267578" xlink:href="#DejaVuSans-108"/>
       <use x="591.050781" xlink:href="#DejaVuSans-106"/>
       <use x="618.833984" xlink:href="#DejaVuSans-101"/>
       <use x="680.357422" xlink:href="#DejaVuSans-116"/>
       <use x="719.566406" xlink:href="#DejaVuSans-117"/>
       <use x="782.945312" xlink:href="#DejaVuSans-115"/>
       <use x="835.044922" xlink:href="#DejaVuSans-32"/>
       <use x="866.832031" xlink:href="#DejaVuSans-106"/>
       <use x="894.615234" xlink:href="#DejaVuSans-97"/>
      </g>
      <!-- varastointi, -->
      <defs>
       <path d="M 2.984375 54.6875 
L 12.5 54.6875 
L 29.59375 8.796875 
L 46.6875 54.6875 
L 56.203125 54.6875 
L 35.6875 0 
L 23.484375 0 
z
" id="DejaVuSans-118"/>
      </defs>
      <g transform="translate(166.156063 225.918563)scale(0.06 -0.06)">
       <use xlink:href="#DejaVuSans-118"/>
       <use x="59.179688" xlink:href="#DejaVuSans-97"/>
       <use x="120.458984" xlink:href="#DejaVuSans-114"/>
       <use x="161.572266" xlink:href="#DejaVuSans-97"/>
       <use x="222.851562" xlink:href="#DejaVuSans-115"/>
       <use x="274.951172" xlink:href="#DejaVuSans-116"/>
       <use x="314.160156" xlink:href="#DejaVuSans-111"/>
       <use x="375.341797" xlink:href="#DejaVuSans-105"/>
       <use x="403.125" xlink:href="#DejaVuSans-110"/>
       <use x="466.503906" xlink:href="#DejaVuSans-116"/>
       <use x="505.712891" xlink:href="#DejaVuSans-105"/>
       <use x="533.496094" xlink:href="#DejaVuSans-44"/>
      </g>
      <!-- majoitus- ja -->
      <defs>
       <path d="M 4.890625 31.390625 
L 31.203125 31.390625 
L 31.203125 23.390625 
L 4.890625 23.390625 
z
" id="DejaVuSans-45"/>
      </defs>
      <g transform="translate(164.850125 232.637251)scale(0.06 -0.06)">
       <use xlink:href="#DejaVuSans-109"/>
       <use x="97.412109" xlink:href="#DejaVuSans-97"/>
       <use x="158.691406" xlink:href="#DejaVuSans-106"/>
       <use x="186.474609" xlink:href="#DejaVuSans-111"/>
       <use x="247.65625" xlink:href="#DejaVuSans-105"/>
       <use x="275.439453" xlink:href="#DejaVuSans-116"/>
       <use x="314.648438" xlink:href="#DejaVuSans-117"/>
       <use x="378.027344" xlink:href="#DejaVuSans-115"/>
       <use x="430.126953" xlink:href="#DejaVuSans-45"/>
       <use x="466.210938" xlink:href="#DejaVuSans-32"/>
       <use x="497.998047" xlink:href="#DejaVuSans-106"/>
       <use x="525.78125" xlink:href="#DejaVuSans-97"/>
      </g>
      <!-- ravitsemistoiminta -->
      <g transform="translate(143.87075 239.355938)scale(0.06 -0.06)">
       <use xlink:href="#DejaVuSans-114"/>
       <use x="41.113281" xlink:href="#DejaVuSans-97"/>
       <use x="102.392578" xlink:href="#DejaVuSans-118"/>
       <use x="161.572266" xlink:href="#DejaVuSans-105"/>
       <use x="189.355469" xlink:href="#DejaVuSans-116"/>
       <use x="228.564453" xlink:href="#DejaVuSans-115"/>
       <use x="280.664062" xlink:href="#DejaVuSans-101"/>
       <use x="342.1875" xlink:href="#DejaVuSans-109"/>
       <use x="439.599609" xlink:href="#DejaVuSans-105"/>
       <use x="467.382812" xlink:href="#DejaVuSans-115"/>
       <use x="519.482422" xlink:href="#DejaVuSans-116"/>
       <use x="558.691406" xlink:href="#DejaVuSans-111"/>
       <use x="619.873047" xlink:href="#DejaVuSans-105"/>
       <use x="647.65625" xlink:href="#DejaVuSans-109"/>
       <use x="745.068359" xlink:href="#DejaVuSans-105"/>
       <use x="772.851562" xlink:href="#DejaVuSans-110"/>
       <use x="836.230469" xlink:href="#DejaVuSans-116"/>
       <use x="875.439453" xlink:href="#DejaVuSans-97"/>
      </g>
     </g>
    </g>
    <g id="ytick_9">
     <g id="line2d_15">
      <g>
       <use style="stroke:#000000;stroke-width:0.8;" x="207.072" xlink:href="#m38417d6d8f" y="202.584209"/>
      </g>
     </g>
     <g id="text_16">
      <!-- Informaatio ja -->
      <defs>
       <path d="M 9.8125 72.90625 
L 19.671875 72.90625 
L 19.671875 0 
L 9.8125 0 
z
" id="DejaVuSans-73"/>
       <path d="M 37.109375 75.984375 
L 37.109375 68.5 
L 28.515625 68.5 
Q 23.6875 68.5 21.796875 66.546875 
Q 19.921875 64.59375 19.921875 59.515625 
L 19.921875 54.6875 
L 34.71875 54.6875 
L 34.71875 47.703125 
L 19.921875 47.703125 
L 19.921875 0 
L 10.890625 0 
L 10.890625 47.703125 
L 2.296875 47.703125 
L 2.296875 54.6875 
L 10.890625 54.6875 
L 10.890625 58.5 
Q 10.890625 67.625 15.140625 71.796875 
Q 19.390625 75.984375 28.609375 75.984375 
z
" id="DejaVuSans-102"/>
      </defs>
      <g transform="translate(158.111375 201.960302)scale(0.06 -0.06)">
       <use xlink:href="#DejaVuSans-73"/>
       <use x="29.492188" xlink:href="#DejaVuSans-110"/>
       <use x="92.871094" xlink:href="#DejaVuSans-102"/>
       <use x="128.076172" xlink:href="#DejaVuSans-111"/>
       <use x="189.257812" xlink:href="#DejaVuSans-114"/>
       <use x="230.355469" xlink:href="#DejaVuSans-109"/>
       <use x="327.767578" xlink:href="#DejaVuSans-97"/>
       <use x="389.046875" xlink:href="#DejaVuSans-97"/>
       <use x="450.326172" xlink:href="#DejaVuSans-116"/>
       <use x="489.535156" xlink:href="#DejaVuSans-105"/>
       <use x="517.318359" xlink:href="#DejaVuSans-111"/>
       <use x="578.5" xlink:href="#DejaVuSans-32"/>
       <use x="610.287109" xlink:href="#DejaVuSans-106"/>
       <use x="638.070312" xlink:href="#DejaVuSans-97"/>
      </g>
      <!-- viestintä -->
      <g transform="translate(174.18575 208.67899)scale(0.06 -0.06)">
       <use xlink:href="#DejaVuSans-118"/>
       <use x="59.179688" xlink:href="#DejaVuSans-105"/>
       <use x="86.962891" xlink:href="#DejaVuSans-101"/>
       <use x="148.486328" xlink:href="#DejaVuSans-115"/>
       <use x="200.585938" xlink:href="#DejaVuSans-116"/>
       <use x="239.794922" xlink:href="#DejaVuSans-105"/>
       <use x="267.578125" xlink:href="#DejaVuSans-110"/>
       <use x="330.957031" xlink:href="#DejaVuSans-116"/>
       <use x="370.166016" xlink:href="#DejaVuSans-228"/>
      </g>
     </g>
    </g>
    <g id="ytick_10">
     <g id="line2d_16">
      <g>
       <use style="stroke:#000000;stroke-width:0.8;" x="207.072" xlink:href="#m38417d6d8f" y="178.625948"/>
      </g>
     </g>
     <g id="text_17">
      <!-- Rahoitus- ja -->
      <g transform="translate(164.391688 178.002042)scale(0.06 -0.06)">
       <use xlink:href="#DejaVuSans-82"/>
       <use x="69.451172" xlink:href="#DejaVuSans-97"/>
       <use x="130.730469" xlink:href="#DejaVuSans-104"/>
       <use x="194.109375" xlink:href="#DejaVuSans-111"/>
       <use x="255.291016" xlink:href="#DejaVuSans-105"/>
       <use x="283.074219" xlink:href="#DejaVuSans-116"/>
       <use x="322.283203" xlink:href="#DejaVuSans-117"/>
       <use x="385.662109" xlink:href="#DejaVuSans-115"/>
       <use x="437.761719" xlink:href="#DejaVuSans-45"/>
       <use x="473.845703" xlink:href="#DejaVuSans-32"/>
       <use x="505.632812" xlink:href="#DejaVuSans-106"/>
       <use x="533.416016" xlink:href="#DejaVuSans-97"/>
      </g>
      <!-- vakuutustoiminta -->
      <g transform="translate(147.453875 184.720729)scale(0.06 -0.06)">
       <use xlink:href="#DejaVuSans-118"/>
       <use x="59.179688" xlink:href="#DejaVuSans-97"/>
       <use x="120.458984" xlink:href="#DejaVuSans-107"/>
       <use x="178.322266" xlink:href="#DejaVuSans-117"/>
       <use x="241.701172" xlink:href="#DejaVuSans-117"/>
       <use x="305.080078" xlink:href="#DejaVuSans-116"/>
       <use x="344.289062" xlink:href="#DejaVuSans-117"/>
       <use x="407.667969" xlink:href="#DejaVuSans-115"/>
       <use x="459.767578" xlink:href="#DejaVuSans-116"/>
       <use x="498.976562" xlink:href="#DejaVuSans-111"/>
       <use x="560.158203" xlink:href="#DejaVuSans-105"/>
       <use x="587.941406" xlink:href="#DejaVuSans-109"/>
       <use x="685.353516" xlink:href="#DejaVuSans-105"/>
       <use x="713.136719" xlink:href="#DejaVuSans-110"/>
       <use x="776.515625" xlink:href="#DejaVuSans-116"/>
       <use x="815.724609" xlink:href="#DejaVuSans-97"/>
      </g>
     </g>
    </g>
    <g id="ytick_11">
     <g id="line2d_17">
      <g>
       <use style="stroke:#000000;stroke-width:0.8;" x="207.072" xlink:href="#m38417d6d8f" y="154.667687"/>
      </g>
     </g>
     <g id="text_18">
      <!-- Kiinteistöalan -->
      <defs>
       <path d="M 30.609375 48.390625 
Q 23.390625 48.390625 19.1875 42.75 
Q 14.984375 37.109375 14.984375 27.296875 
Q 14.984375 17.484375 19.15625 11.84375 
Q 23.34375 6.203125 30.609375 6.203125 
Q 37.796875 6.203125 41.984375 11.859375 
Q 46.1875 17.53125 46.1875 27.296875 
Q 46.1875 37.015625 41.984375 42.703125 
Q 37.796875 48.390625 30.609375 48.390625 
z
M 30.609375 56 
Q 42.328125 56 49.015625 48.375 
Q 55.71875 40.765625 55.71875 27.296875 
Q 55.71875 13.875 49.015625 6.21875 
Q 42.328125 -1.421875 30.609375 -1.421875 
Q 18.84375 -1.421875 12.171875 6.21875 
Q 5.515625 13.875 5.515625 27.296875 
Q 5.515625 40.765625 12.171875 48.375 
Q 18.84375 56 30.609375 56 
z
M 35.203125 75.78125 
L 45.125 75.78125 
L 45.125 65.921875 
L 35.203125 65.921875 
z
M 16.109375 75.78125 
L 26.03125 75.78125 
L 26.03125 65.921875 
L 16.109375 65.921875 
z
" id="DejaVuSans-246"/>
      </defs>
      <g transform="translate(159.317938 154.043781)scale(0.06 -0.06)">
       <use xlink:href="#DejaVuSans-75"/>
       <use x="65.576172" xlink:href="#DejaVuSans-105"/>
       <use x="93.359375" xlink:href="#DejaVuSans-105"/>
       <use x="121.142578" xlink:href="#DejaVuSans-110"/>
       <use x="184.521484" xlink:href="#DejaVuSans-116"/>
       <use x="223.730469" xlink:href="#DejaVuSans-101"/>
       <use x="285.253906" xlink:href="#DejaVuSans-105"/>
       <use x="313.037109" xlink:href="#DejaVuSans-115"/>
       <use x="365.136719" xlink:href="#DejaVuSans-116"/>
       <use x="404.345703" xlink:href="#DejaVuSans-246"/>
       <use x="465.527344" xlink:href="#DejaVuSans-97"/>
       <use x="526.806641" xlink:href="#DejaVuSans-108"/>
       <use x="554.589844" xlink:href="#DejaVuSans-97"/>
       <use x="615.869141" xlink:href="#DejaVuSans-110"/>
      </g>
      <!-- toiminta -->
      <g transform="translate(175.038875 160.762468)scale(0.06 -0.06)">
       <use xlink:href="#DejaVuSans-116"/>
       <use x="39.208984" xlink:href="#DejaVuSans-111"/>
       <use x="100.390625" xlink:href="#DejaVuSans-105"/>
       <use x="128.173828" xlink:href="#DejaVuSans-109"/>
       <use x="225.585938" xlink:href="#DejaVuSans-105"/>
       <use x="253.369141" xlink:href="#DejaVuSans-110"/>
       <use x="316.748047" xlink:href="#DejaVuSans-116"/>
       <use x="355.957031" xlink:href="#DejaVuSans-97"/>
      </g>
     </g>
    </g>
    <g id="ytick_12">
     <g id="line2d_18">
      <g>
       <use style="stroke:#000000;stroke-width:0.8;" x="207.072" xlink:href="#m38417d6d8f" y="130.709426"/>
      </g>
     </g>
     <g id="text_19">
      <!-- Ammatillinen, -->
      <defs>
       <path d="M 34.1875 63.1875 
L 20.796875 26.90625 
L 47.609375 26.90625 
z
M 28.609375 72.90625 
L 39.796875 72.90625 
L 67.578125 0 
L 57.328125 0 
L 50.6875 18.703125 
L 17.828125 18.703125 
L 11.1875 0 
L 0.78125 0 
z
" id="DejaVuSans-65"/>
      </defs>
      <g transform="translate(158.378563 120.007489)scale(0.06 -0.06)">
       <use xlink:href="#DejaVuSans-65"/>
       <use x="68.408203" xlink:href="#DejaVuSans-109"/>
       <use x="165.820312" xlink:href="#DejaVuSans-109"/>
       <use x="263.232422" xlink:href="#DejaVuSans-97"/>
       <use x="324.511719" xlink:href="#DejaVuSans-116"/>
       <use x="363.720703" xlink:href="#DejaVuSans-105"/>
       <use x="391.503906" xlink:href="#DejaVuSans-108"/>
       <use x="419.287109" xlink:href="#DejaVuSans-108"/>
       <use x="447.070312" xlink:href="#DejaVuSans-105"/>
       <use x="474.853516" xlink:href="#DejaVuSans-110"/>
       <use x="538.232422" xlink:href="#DejaVuSans-101"/>
       <use x="599.755859" xlink:href="#DejaVuSans-110"/>
       <use x="663.134766" xlink:href="#DejaVuSans-44"/>
      </g>
      <!-- tieteellinen ja -->
      <g transform="translate(159.077 126.726176)scale(0.06 -0.06)">
       <use xlink:href="#DejaVuSans-116"/>
       <use x="39.208984" xlink:href="#DejaVuSans-105"/>
       <use x="66.992188" xlink:href="#DejaVuSans-101"/>
       <use x="128.515625" xlink:href="#DejaVuSans-116"/>
       <use x="167.724609" xlink:href="#DejaVuSans-101"/>
       <use x="229.248047" xlink:href="#DejaVuSans-101"/>
       <use x="290.771484" xlink:href="#DejaVuSans-108"/>
       <use x="318.554688" xlink:href="#DejaVuSans-108"/>
       <use x="346.337891" xlink:href="#DejaVuSans-105"/>
       <use x="374.121094" xlink:href="#DejaVuSans-110"/>
       <use x="437.5" xlink:href="#DejaVuSans-101"/>
       <use x="499.023438" xlink:href="#DejaVuSans-110"/>
       <use x="562.402344" xlink:href="#DejaVuSans-32"/>
       <use x="594.189453" xlink:href="#DejaVuSans-106"/>
       <use x="621.972656" xlink:href="#DejaVuSans-97"/>
      </g>
      <!-- tekninen toiminta, -->
      <g transform="translate(144.940438 133.444864)scale(0.06 -0.06)">
       <use xlink:href="#DejaVuSans-116"/>
       <use x="39.208984" xlink:href="#DejaVuSans-101"/>
       <use x="100.732422" xlink:href="#DejaVuSans-107"/>
       <use x="158.642578" xlink:href="#DejaVuSans-110"/>
       <use x="222.021484" xlink:href="#DejaVuSans-105"/>
       <use x="249.804688" xlink:href="#DejaVuSans-110"/>
       <use x="313.183594" xlink:href="#DejaVuSans-101"/>
       <use x="374.707031" xlink:href="#DejaVuSans-110"/>
       <use x="438.085938" xlink:href="#DejaVuSans-32"/>
       <use x="469.873047" xlink:href="#DejaVuSans-116"/>
       <use x="509.082031" xlink:href="#DejaVuSans-111"/>
       <use x="570.263672" xlink:href="#DejaVuSans-105"/>
       <use x="598.046875" xlink:href="#DejaVuSans-109"/>
       <use x="695.458984" xlink:href="#DejaVuSans-105"/>
       <use x="723.242188" xlink:href="#DejaVuSans-110"/>
       <use x="786.621094" xlink:href="#DejaVuSans-116"/>
       <use x="825.830078" xlink:href="#DejaVuSans-97"/>
       <use x="887.109375" xlink:href="#DejaVuSans-44"/>
      </g>
      <!-- hallinto- ja -->
      <g transform="translate(168.349813 140.163551)scale(0.06 -0.06)">
       <use xlink:href="#DejaVuSans-104"/>
       <use x="63.378906" xlink:href="#DejaVuSans-97"/>
       <use x="124.658203" xlink:href="#DejaVuSans-108"/>
       <use x="152.441406" xlink:href="#DejaVuSans-108"/>
       <use x="180.224609" xlink:href="#DejaVuSans-105"/>
       <use x="208.007812" xlink:href="#DejaVuSans-110"/>
       <use x="271.386719" xlink:href="#DejaVuSans-116"/>
       <use x="310.595703" xlink:href="#DejaVuSans-111"/>
       <use x="371.792969" xlink:href="#DejaVuSans-45"/>
       <use x="407.876953" xlink:href="#DejaVuSans-32"/>
       <use x="439.664062" xlink:href="#DejaVuSans-106"/>
       <use x="467.447266" xlink:href="#DejaVuSans-97"/>
      </g>
      <!-- tukipalvelutoiminta -->
      <g transform="translate(141.877625 146.882239)scale(0.06 -0.06)">
       <use xlink:href="#DejaVuSans-116"/>
       <use x="39.208984" xlink:href="#DejaVuSans-117"/>
       <use x="102.587891" xlink:href="#DejaVuSans-107"/>
       <use x="160.498047" xlink:href="#DejaVuSans-105"/>
       <use x="188.28125" xlink:href="#DejaVuSans-112"/>
       <use x="251.757812" xlink:href="#DejaVuSans-97"/>
       <use x="313.037109" xlink:href="#DejaVuSans-108"/>
       <use x="340.820312" xlink:href="#DejaVuSans-118"/>
       <use x="400" xlink:href="#DejaVuSans-101"/>
       <use x="461.523438" xlink:href="#DejaVuSans-108"/>
       <use x="489.306641" xlink:href="#DejaVuSans-117"/>
       <use x="552.685547" xlink:href="#DejaVuSans-116"/>
       <use x="591.894531" xlink:href="#DejaVuSans-111"/>
       <use x="653.076172" xlink:href="#DejaVuSans-105"/>
       <use x="680.859375" xlink:href="#DejaVuSans-109"/>
       <use x="778.271484" xlink:href="#DejaVuSans-105"/>
       <use x="806.054688" xlink:href="#DejaVuSans-110"/>
       <use x="869.433594" xlink:href="#DejaVuSans-116"/>
       <use x="908.642578" xlink:href="#DejaVuSans-97"/>
      </g>
     </g>
    </g>
    <g id="ytick_13">
     <g id="line2d_19">
      <g>
       <use style="stroke:#000000;stroke-width:0.8;" x="207.072" xlink:href="#m38417d6d8f" y="106.751165"/>
      </g>
     </g>
     <g id="text_20">
      <!-- Julkinen hallinto, -->
      <defs>
       <path d="M 9.8125 72.90625 
L 19.671875 72.90625 
L 19.671875 5.078125 
Q 19.671875 -8.109375 14.671875 -14.0625 
Q 9.671875 -20.015625 -1.421875 -20.015625 
L -5.171875 -20.015625 
L -5.171875 -11.71875 
L -2.09375 -11.71875 
Q 4.4375 -11.71875 7.125 -8.046875 
Q 9.8125 -4.390625 9.8125 5.078125 
z
" id="DejaVuSans-74"/>
      </defs>
      <g transform="translate(150.274813 102.767915)scale(0.06 -0.06)">
       <use xlink:href="#DejaVuSans-74"/>
       <use x="29.492188" xlink:href="#DejaVuSans-117"/>
       <use x="92.871094" xlink:href="#DejaVuSans-108"/>
       <use x="120.654297" xlink:href="#DejaVuSans-107"/>
       <use x="178.564453" xlink:href="#DejaVuSans-105"/>
       <use x="206.347656" xlink:href="#DejaVuSans-110"/>
       <use x="269.726562" xlink:href="#DejaVuSans-101"/>
       <use x="331.25" xlink:href="#DejaVuSans-110"/>
       <use x="394.628906" xlink:href="#DejaVuSans-32"/>
       <use x="426.416016" xlink:href="#DejaVuSans-104"/>
       <use x="489.794922" xlink:href="#DejaVuSans-97"/>
       <use x="551.074219" xlink:href="#DejaVuSans-108"/>
       <use x="578.857422" xlink:href="#DejaVuSans-108"/>
       <use x="606.640625" xlink:href="#DejaVuSans-105"/>
       <use x="634.423828" xlink:href="#DejaVuSans-110"/>
       <use x="697.802734" xlink:href="#DejaVuSans-116"/>
       <use x="737.011719" xlink:href="#DejaVuSans-111"/>
       <use x="798.193359" xlink:href="#DejaVuSans-44"/>
      </g>
      <!-- koulutus, terveys- -->
      <g transform="translate(145.967938 109.486603)scale(0.06 -0.06)">
       <use xlink:href="#DejaVuSans-107"/>
       <use x="57.863281" xlink:href="#DejaVuSans-111"/>
       <use x="119.044922" xlink:href="#DejaVuSans-117"/>
       <use x="182.423828" xlink:href="#DejaVuSans-108"/>
       <use x="210.207031" xlink:href="#DejaVuSans-117"/>
       <use x="273.585938" xlink:href="#DejaVuSans-116"/>
       <use x="312.794922" xlink:href="#DejaVuSans-117"/>
       <use x="376.173828" xlink:href="#DejaVuSans-115"/>
       <use x="428.273438" xlink:href="#DejaVuSans-44"/>
       <use x="460.060547" xlink:href="#DejaVuSans-32"/>
       <use x="491.847656" xlink:href="#DejaVuSans-116"/>
       <use x="531.056641" xlink:href="#DejaVuSans-101"/>
       <use x="592.580078" xlink:href="#DejaVuSans-114"/>
       <use x="633.693359" xlink:href="#DejaVuSans-118"/>
       <use x="692.873047" xlink:href="#DejaVuSans-101"/>
       <use x="754.396484" xlink:href="#DejaVuSans-121"/>
       <use x="813.576172" xlink:href="#DejaVuSans-115"/>
       <use x="865.675781" xlink:href="#DejaVuSans-45"/>
      </g>
      <!-- ja sosiaalipalvelut -->
      <g transform="translate(146.327 116.20529)scale(0.06 -0.06)">
       <use xlink:href="#DejaVuSans-106"/>
       <use x="27.783203" xlink:href="#DejaVuSans-97"/>
       <use x="89.0625" xlink:href="#DejaVuSans-32"/>
       <use x="120.849609" xlink:href="#DejaVuSans-115"/>
       <use x="172.949219" xlink:href="#DejaVuSans-111"/>
       <use x="234.130859" xlink:href="#DejaVuSans-115"/>
       <use x="286.230469" xlink:href="#DejaVuSans-105"/>
       <use x="314.013672" xlink:href="#DejaVuSans-97"/>
       <use x="375.292969" xlink:href="#DejaVuSans-97"/>
       <use x="436.572266" xlink:href="#DejaVuSans-108"/>
       <use x="464.355469" xlink:href="#DejaVuSans-105"/>
       <use x="492.138672" xlink:href="#DejaVuSans-112"/>
       <use x="555.615234" xlink:href="#DejaVuSans-97"/>
       <use x="616.894531" xlink:href="#DejaVuSans-108"/>
       <use x="644.677734" xlink:href="#DejaVuSans-118"/>
       <use x="703.857422" xlink:href="#DejaVuSans-101"/>
       <use x="765.380859" xlink:href="#DejaVuSans-108"/>
       <use x="793.164062" xlink:href="#DejaVuSans-117"/>
       <use x="856.542969" xlink:href="#DejaVuSans-116"/>
      </g>
     </g>
    </g>
    <g id="ytick_14">
     <g id="line2d_20">
      <g>
       <use style="stroke:#000000;stroke-width:0.8;" x="207.072" xlink:href="#m38417d6d8f" y="82.792904"/>
      </g>
     </g>
     <g id="text_21">
      <!-- Taiteet, viihde ja -->
      <defs>
       <path d="M 45.40625 46.390625 
L 45.40625 75.984375 
L 54.390625 75.984375 
L 54.390625 0 
L 45.40625 0 
L 45.40625 8.203125 
Q 42.578125 3.328125 38.25 0.953125 
Q 33.9375 -1.421875 27.875 -1.421875 
Q 17.96875 -1.421875 11.734375 6.484375 
Q 5.515625 14.40625 5.515625 27.296875 
Q 5.515625 40.1875 11.734375 48.09375 
Q 17.96875 56 27.875 56 
Q 33.9375 56 38.25 53.625 
Q 42.578125 51.265625 45.40625 46.390625 
z
M 14.796875 27.296875 
Q 14.796875 17.390625 18.875 11.75 
Q 22.953125 6.109375 30.078125 6.109375 
Q 37.203125 6.109375 41.296875 11.75 
Q 45.40625 17.390625 45.40625 27.296875 
Q 45.40625 37.203125 41.296875 42.84375 
Q 37.203125 48.484375 30.078125 48.484375 
Q 22.953125 48.484375 18.875 42.84375 
Q 14.796875 37.203125 14.796875 27.296875 
z
" id="DejaVuSans-100"/>
      </defs>
      <g transform="translate(149.737625 78.809654)scale(0.06 -0.06)">
       <use xlink:href="#DejaVuSans-84"/>
       <use x="60.833984" xlink:href="#DejaVuSans-97"/>
       <use x="122.113281" xlink:href="#DejaVuSans-105"/>
       <use x="149.896484" xlink:href="#DejaVuSans-116"/>
       <use x="189.105469" xlink:href="#DejaVuSans-101"/>
       <use x="250.628906" xlink:href="#DejaVuSans-101"/>
       <use x="312.152344" xlink:href="#DejaVuSans-116"/>
       <use x="351.361328" xlink:href="#DejaVuSans-44"/>
       <use x="383.148438" xlink:href="#DejaVuSans-32"/>
       <use x="414.935547" xlink:href="#DejaVuSans-118"/>
       <use x="474.115234" xlink:href="#DejaVuSans-105"/>
       <use x="501.898438" xlink:href="#DejaVuSans-105"/>
       <use x="529.681641" xlink:href="#DejaVuSans-104"/>
       <use x="593.060547" xlink:href="#DejaVuSans-100"/>
       <use x="656.537109" xlink:href="#DejaVuSans-101"/>
       <use x="718.060547" xlink:href="#DejaVuSans-32"/>
       <use x="749.847656" xlink:href="#DejaVuSans-106"/>
       <use x="777.630859" xlink:href="#DejaVuSans-97"/>
      </g>
      <!-- virkistys; muut -->
      <defs>
       <path d="M 11.71875 51.703125 
L 22.015625 51.703125 
L 22.015625 39.3125 
L 11.71875 39.3125 
z
M 11.71875 12.40625 
L 22.015625 12.40625 
L 22.015625 4 
L 14.015625 -11.625 
L 7.71875 -11.625 
L 11.71875 4 
z
" id="DejaVuSans-59"/>
      </defs>
      <g transform="translate(155.361688 85.528342)scale(0.06 -0.06)">
       <use xlink:href="#DejaVuSans-118"/>
       <use x="59.179688" xlink:href="#DejaVuSans-105"/>
       <use x="86.962891" xlink:href="#DejaVuSans-114"/>
       <use x="128.076172" xlink:href="#DejaVuSans-107"/>
       <use x="185.986328" xlink:href="#DejaVuSans-105"/>
       <use x="213.769531" xlink:href="#DejaVuSans-115"/>
       <use x="265.869141" xlink:href="#DejaVuSans-116"/>
       <use x="305.078125" xlink:href="#DejaVuSans-121"/>
       <use x="364.257812" xlink:href="#DejaVuSans-115"/>
       <use x="416.357422" xlink:href="#DejaVuSans-59"/>
       <use x="450.048828" xlink:href="#DejaVuSans-32"/>
       <use x="481.835938" xlink:href="#DejaVuSans-109"/>
       <use x="579.248047" xlink:href="#DejaVuSans-117"/>
       <use x="642.626953" xlink:href="#DejaVuSans-117"/>
       <use x="706.005859" xlink:href="#DejaVuSans-116"/>
      </g>
      <!-- palvelut -->
      <g transform="translate(175.8545 92.247029)scale(0.06 -0.06)">
       <use xlink:href="#DejaVuSans-112"/>
       <use x="63.476562" xlink:href="#DejaVuSans-97"/>
       <use x="124.755859" xlink:href="#DejaVuSans-108"/>
       <use x="152.539062" xlink:href="#DejaVuSans-118"/>
       <use x="211.71875" xlink:href="#DejaVuSans-101"/>
       <use x="273.242188" xlink:href="#DejaVuSans-108"/>
       <use x="301.025391" xlink:href="#DejaVuSans-117"/>
       <use x="364.404297" xlink:href="#DejaVuSans-116"/>
      </g>
     </g>
    </g>
    <g id="text_22">
     <!-- toimialat -->
     <g transform="translate(134.612938 260.666913)rotate(-90)scale(0.1 -0.1)">
      <use xlink:href="#DejaVuSans-116"/>
      <use x="39.208984" xlink:href="#DejaVuSans-111"/>
      <use x="100.390625" xlink:href="#DejaVuSans-105"/>
      <use x="128.173828" xlink:href="#DejaVuSans-109"/>
      <use x="225.585938" xlink:href="#DejaVuSans-105"/>
      <use x="253.369141" xlink:href="#DejaVuSans-97"/>
      <use x="314.648438" xlink:href="#DejaVuSans-108"/>
      <use x="342.431641" xlink:href="#DejaVuSans-97"/>
      <use x="403.710938" xlink:href="#DejaVuSans-116"/>
     </g>
    </g>
   </g>
   <g id="patch_31">
    <path d="M 207.072 420.3648 
L 207.072 56.6784 
" style="fill:none;stroke:#000000;stroke-linecap:square;stroke-linejoin:miter;stroke-width:0.8;"/>
   </g>
   <g id="patch_32">
    <path d="M 465.912 420.3648 
L 465.912 56.6784 
" style="fill:none;stroke:#000000;stroke-linecap:square;stroke-linejoin:miter;stroke-width:0.8;"/>
   </g>
   <g id="patch_33">
    <path d="M 207.072 420.3648 
L 465.912 420.3648 
" style="fill:none;stroke:#000000;stroke-linecap:square;stroke-linejoin:miter;stroke-width:0.8;"/>
   </g>
   <g id="patch_34">
    <path d="M 207.072 56.6784 
L 465.912 56.6784 
" style="fill:none;stroke:#000000;stroke-linecap:square;stroke-linejoin:miter;stroke-width:0.8;"/>
   </g>
   <g id="text_23">
    <!-- Suomen virallinen tilasto (SVT): Neljännesvuositilinpito [verkkojulkaisu].ISSN=1797-9749. Helsinki: Tilastokeskus [viitattu: 30.12.2020]. -->
    <defs>
     <path d="M 53.515625 70.515625 
L 53.515625 60.890625 
Q 47.90625 63.578125 42.921875 64.890625 
Q 37.9375 66.21875 33.296875 66.21875 
Q 25.25 66.21875 20.875 63.09375 
Q 16.5 59.96875 16.5 54.203125 
Q 16.5 49.359375 19.40625 46.890625 
Q 22.3125 44.4375 30.421875 42.921875 
L 36.375 41.703125 
Q 47.40625 39.59375 52.65625 34.296875 
Q 57.90625 29 57.90625 20.125 
Q 57.90625 9.515625 50.796875 4.046875 
Q 43.703125 -1.421875 29.984375 -1.421875 
Q 24.8125 -1.421875 18.96875 -0.25 
Q 13.140625 0.921875 6.890625 3.21875 
L 6.890625 13.375 
Q 12.890625 10.015625 18.65625 8.296875 
Q 24.421875 6.59375 29.984375 6.59375 
Q 38.421875 6.59375 43.015625 9.90625 
Q 47.609375 13.234375 47.609375 19.390625 
Q 47.609375 24.75 44.3125 27.78125 
Q 41.015625 30.8125 33.5 32.328125 
L 27.484375 33.5 
Q 16.453125 35.6875 11.515625 40.375 
Q 6.59375 45.0625 6.59375 53.421875 
Q 6.59375 63.09375 13.40625 68.65625 
Q 20.21875 74.21875 32.171875 74.21875 
Q 37.3125 74.21875 42.625 73.28125 
Q 47.953125 72.359375 53.515625 70.515625 
z
" id="DejaVuSans-83"/>
     <path d="M 31 75.875 
Q 24.46875 64.65625 21.28125 53.65625 
Q 18.109375 42.671875 18.109375 31.390625 
Q 18.109375 20.125 21.3125 9.0625 
Q 24.515625 -2 31 -13.1875 
L 23.1875 -13.1875 
Q 15.875 -1.703125 12.234375 9.375 
Q 8.59375 20.453125 8.59375 31.390625 
Q 8.59375 42.28125 12.203125 53.3125 
Q 15.828125 64.359375 23.1875 75.875 
z
" id="DejaVuSans-40"/>
     <path d="M 28.609375 0 
L 0.78125 72.90625 
L 11.078125 72.90625 
L 34.1875 11.53125 
L 57.328125 72.90625 
L 67.578125 72.90625 
L 39.796875 0 
z
" id="DejaVuSans-86"/>
     <path d="M 8.015625 75.875 
L 15.828125 75.875 
Q 23.140625 64.359375 26.78125 53.3125 
Q 30.421875 42.28125 30.421875 31.390625 
Q 30.421875 20.453125 26.78125 9.375 
Q 23.140625 -1.703125 15.828125 -13.1875 
L 8.015625 -13.1875 
Q 14.5 -2 17.703125 9.0625 
Q 20.90625 20.125 20.90625 31.390625 
Q 20.90625 42.671875 17.703125 53.65625 
Q 14.5 64.65625 8.015625 75.875 
z
" id="DejaVuSans-41"/>
     <path d="M 11.71875 12.40625 
L 22.015625 12.40625 
L 22.015625 0 
L 11.71875 0 
z
M 11.71875 51.703125 
L 22.015625 51.703125 
L 22.015625 39.3125 
L 11.71875 39.3125 
z
" id="DejaVuSans-58"/>
     <path d="M 9.8125 72.90625 
L 23.09375 72.90625 
L 55.421875 11.921875 
L 55.421875 72.90625 
L 64.984375 72.90625 
L 64.984375 0 
L 51.703125 0 
L 19.390625 60.984375 
L 19.390625 0 
L 9.8125 0 
z
" id="DejaVuSans-78"/>
     <path d="M 10.6875 12.40625 
L 21 12.40625 
L 21 0 
L 10.6875 0 
z
" id="DejaVuSans-46"/>
     <path d="M 10.59375 45.40625 
L 73.1875 45.40625 
L 73.1875 37.203125 
L 10.59375 37.203125 
z
M 10.59375 25.484375 
L 73.1875 25.484375 
L 73.1875 17.1875 
L 10.59375 17.1875 
z
" id="DejaVuSans-61"/>
     <path d="M 8.203125 72.90625 
L 55.078125 72.90625 
L 55.078125 68.703125 
L 28.609375 0 
L 18.3125 0 
L 43.21875 64.59375 
L 8.203125 64.59375 
z
" id="DejaVuSans-55"/>
     <path d="M 10.984375 1.515625 
L 10.984375 10.5 
Q 14.703125 8.734375 18.5 7.8125 
Q 22.3125 6.890625 25.984375 6.890625 
Q 35.75 6.890625 40.890625 13.453125 
Q 46.046875 20.015625 46.78125 33.40625 
Q 43.953125 29.203125 39.59375 26.953125 
Q 35.25 24.703125 29.984375 24.703125 
Q 19.046875 24.703125 12.671875 31.3125 
Q 6.296875 37.9375 6.296875 49.421875 
Q 6.296875 60.640625 12.9375 67.421875 
Q 19.578125 74.21875 30.609375 74.21875 
Q 43.265625 74.21875 49.921875 64.515625 
Q 56.59375 54.828125 56.59375 36.375 
Q 56.59375 19.140625 48.40625 8.859375 
Q 40.234375 -1.421875 26.421875 -1.421875 
Q 22.703125 -1.421875 18.890625 -0.6875 
Q 15.09375 0.046875 10.984375 1.515625 
z
M 30.609375 32.421875 
Q 37.25 32.421875 41.125 36.953125 
Q 45.015625 41.5 45.015625 49.421875 
Q 45.015625 57.28125 41.125 61.84375 
Q 37.25 66.40625 30.609375 66.40625 
Q 23.96875 66.40625 20.09375 61.84375 
Q 16.21875 57.28125 16.21875 49.421875 
Q 16.21875 41.5 20.09375 36.953125 
Q 23.96875 32.421875 30.609375 32.421875 
z
" id="DejaVuSans-57"/>
     <path d="M 9.8125 72.90625 
L 19.671875 72.90625 
L 19.671875 43.015625 
L 55.515625 43.015625 
L 55.515625 72.90625 
L 65.375 72.90625 
L 65.375 0 
L 55.515625 0 
L 55.515625 34.71875 
L 19.671875 34.71875 
L 19.671875 0 
L 9.8125 0 
z
" id="DejaVuSans-72"/>
     <path d="M 40.578125 39.3125 
Q 47.65625 37.796875 51.625 33 
Q 55.609375 28.21875 55.609375 21.1875 
Q 55.609375 10.40625 48.1875 4.484375 
Q 40.765625 -1.421875 27.09375 -1.421875 
Q 22.515625 -1.421875 17.65625 -0.515625 
Q 12.796875 0.390625 7.625 2.203125 
L 7.625 11.71875 
Q 11.71875 9.328125 16.59375 8.109375 
Q 21.484375 6.890625 26.8125 6.890625 
Q 36.078125 6.890625 40.9375 10.546875 
Q 45.796875 14.203125 45.796875 21.1875 
Q 45.796875 27.640625 41.28125 31.265625 
Q 36.765625 34.90625 28.71875 34.90625 
L 20.21875 34.90625 
L 20.21875 43.015625 
L 29.109375 43.015625 
Q 36.375 43.015625 40.234375 45.921875 
Q 44.09375 48.828125 44.09375 54.296875 
Q 44.09375 59.90625 40.109375 62.90625 
Q 36.140625 65.921875 28.71875 65.921875 
Q 24.65625 65.921875 20.015625 65.03125 
Q 15.375 64.15625 9.8125 62.3125 
L 9.8125 71.09375 
Q 15.4375 72.65625 20.34375 73.4375 
Q 25.25 74.21875 29.59375 74.21875 
Q 40.828125 74.21875 47.359375 69.109375 
Q 53.90625 64.015625 53.90625 55.328125 
Q 53.90625 49.265625 50.4375 45.09375 
Q 46.96875 40.921875 40.578125 39.3125 
z
" id="DejaVuSans-51"/>
    </defs>
    <g transform="translate(107.072 456.923862)scale(0.06 -0.06)">
     <use xlink:href="#DejaVuSans-83"/>
     <use x="63.476562" xlink:href="#DejaVuSans-117"/>
     <use x="126.855469" xlink:href="#DejaVuSans-111"/>
     <use x="188.037109" xlink:href="#DejaVuSans-109"/>
     <use x="285.449219" xlink:href="#DejaVuSans-101"/>
     <use x="346.972656" xlink:href="#DejaVuSans-110"/>
     <use x="410.351562" xlink:href="#DejaVuSans-32"/>
     <use x="442.138672" xlink:href="#DejaVuSans-118"/>
     <use x="501.318359" xlink:href="#DejaVuSans-105"/>
     <use x="529.101562" xlink:href="#DejaVuSans-114"/>
     <use x="570.214844" xlink:href="#DejaVuSans-97"/>
     <use x="631.494141" xlink:href="#DejaVuSans-108"/>
     <use x="659.277344" xlink:href="#DejaVuSans-108"/>
     <use x="687.060547" xlink:href="#DejaVuSans-105"/>
     <use x="714.84375" xlink:href="#DejaVuSans-110"/>
     <use x="778.222656" xlink:href="#DejaVuSans-101"/>
     <use x="839.746094" xlink:href="#DejaVuSans-110"/>
     <use x="903.125" xlink:href="#DejaVuSans-32"/>
     <use x="934.912109" xlink:href="#DejaVuSans-116"/>
     <use x="974.121094" xlink:href="#DejaVuSans-105"/>
     <use x="1001.904297" xlink:href="#DejaVuSans-108"/>
     <use x="1029.6875" xlink:href="#DejaVuSans-97"/>
     <use x="1090.966797" xlink:href="#DejaVuSans-115"/>
     <use x="1143.066406" xlink:href="#DejaVuSans-116"/>
     <use x="1182.275391" xlink:href="#DejaVuSans-111"/>
     <use x="1243.457031" xlink:href="#DejaVuSans-32"/>
     <use x="1275.244141" xlink:href="#DejaVuSans-40"/>
     <use x="1314.257812" xlink:href="#DejaVuSans-83"/>
     <use x="1377.734375" xlink:href="#DejaVuSans-86"/>
     <use x="1446.142578" xlink:href="#DejaVuSans-84"/>
     <use x="1507.226562" xlink:href="#DejaVuSans-41"/>
     <use x="1546.240234" xlink:href="#DejaVuSans-58"/>
     <use x="1579.931641" xlink:href="#DejaVuSans-32"/>
     <use x="1611.71875" xlink:href="#DejaVuSans-78"/>
     <use x="1686.523438" xlink:href="#DejaVuSans-101"/>
     <use x="1748.046875" xlink:href="#DejaVuSans-108"/>
     <use x="1775.830078" xlink:href="#DejaVuSans-106"/>
     <use x="1803.613281" xlink:href="#DejaVuSans-228"/>
     <use x="1864.892578" xlink:href="#DejaVuSans-110"/>
     <use x="1928.271484" xlink:href="#DejaVuSans-110"/>
     <use x="1991.650391" xlink:href="#DejaVuSans-101"/>
     <use x="2053.173828" xlink:href="#DejaVuSans-115"/>
     <use x="2105.273438" xlink:href="#DejaVuSans-118"/>
     <use x="2164.453125" xlink:href="#DejaVuSans-117"/>
     <use x="2227.832031" xlink:href="#DejaVuSans-111"/>
     <use x="2289.013672" xlink:href="#DejaVuSans-115"/>
     <use x="2341.113281" xlink:href="#DejaVuSans-105"/>
     <use x="2368.896484" xlink:href="#DejaVuSans-116"/>
     <use x="2408.105469" xlink:href="#DejaVuSans-105"/>
     <use x="2435.888672" xlink:href="#DejaVuSans-108"/>
     <use x="2463.671875" xlink:href="#DejaVuSans-105"/>
     <use x="2491.455078" xlink:href="#DejaVuSans-110"/>
     <use x="2554.833984" xlink:href="#DejaVuSans-112"/>
     <use x="2618.310547" xlink:href="#DejaVuSans-105"/>
     <use x="2646.09375" xlink:href="#DejaVuSans-116"/>
     <use x="2685.302734" xlink:href="#DejaVuSans-111"/>
     <use x="2746.484375" xlink:href="#DejaVuSans-32"/>
     <use x="2778.271484" xlink:href="#DejaVuSans-91"/>
     <use x="2817.285156" xlink:href="#DejaVuSans-118"/>
     <use x="2876.464844" xlink:href="#DejaVuSans-101"/>
     <use x="2937.988281" xlink:href="#DejaVuSans-114"/>
     <use x="2979.101562" xlink:href="#DejaVuSans-107"/>
     <use x="3037.011719" xlink:href="#DejaVuSans-107"/>
     <use x="3094.875" xlink:href="#DejaVuSans-111"/>
     <use x="3156.056641" xlink:href="#DejaVuSans-106"/>
     <use x="3183.839844" xlink:href="#DejaVuSans-117"/>
     <use x="3247.21875" xlink:href="#DejaVuSans-108"/>
     <use x="3275.001953" xlink:href="#DejaVuSans-107"/>
     <use x="3332.896484" xlink:href="#DejaVuSans-97"/>
     <use x="3394.175781" xlink:href="#DejaVuSans-105"/>
     <use x="3421.958984" xlink:href="#DejaVuSans-115"/>
     <use x="3474.058594" xlink:href="#DejaVuSans-117"/>
     <use x="3537.4375" xlink:href="#DejaVuSans-93"/>
     <use x="3576.451172" xlink:href="#DejaVuSans-46"/>
     <use x="3608.238281" xlink:href="#DejaVuSans-73"/>
     <use x="3637.730469" xlink:href="#DejaVuSans-83"/>
     <use x="3701.207031" xlink:href="#DejaVuSans-83"/>
     <use x="3764.683594" xlink:href="#DejaVuSans-78"/>
     <use x="3839.488281" xlink:href="#DejaVuSans-61"/>
     <use x="3923.277344" xlink:href="#DejaVuSans-49"/>
     <use x="3986.900391" xlink:href="#DejaVuSans-55"/>
     <use x="4050.523438" xlink:href="#DejaVuSans-57"/>
     <use x="4114.146484" xlink:href="#DejaVuSans-55"/>
     <use x="4177.769531" xlink:href="#DejaVuSans-45"/>
     <use x="4213.853516" xlink:href="#DejaVuSans-57"/>
     <use x="4277.476562" xlink:href="#DejaVuSans-55"/>
     <use x="4341.099609" xlink:href="#DejaVuSans-52"/>
     <use x="4404.722656" xlink:href="#DejaVuSans-57"/>
     <use x="4468.345703" xlink:href="#DejaVuSans-46"/>
     <use x="4500.132812" xlink:href="#DejaVuSans-32"/>
     <use x="4531.919922" xlink:href="#DejaVuSans-72"/>
     <use x="4607.115234" xlink:href="#DejaVuSans-101"/>
     <use x="4668.638672" xlink:href="#DejaVuSans-108"/>
     <use x="4696.421875" xlink:href="#DejaVuSans-115"/>
     <use x="4748.521484" xlink:href="#DejaVuSans-105"/>
     <use x="4776.304688" xlink:href="#DejaVuSans-110"/>
     <use x="4839.683594" xlink:href="#DejaVuSans-107"/>
     <use x="4897.59375" xlink:href="#DejaVuSans-105"/>
     <use x="4925.376953" xlink:href="#DejaVuSans-58"/>
     <use x="4959.068359" xlink:href="#DejaVuSans-32"/>
     <use x="4990.855469" xlink:href="#DejaVuSans-84"/>
     <use x="5051.892578" xlink:href="#DejaVuSans-105"/>
     <use x="5079.675781" xlink:href="#DejaVuSans-108"/>
     <use x="5107.458984" xlink:href="#DejaVuSans-97"/>
     <use x="5168.738281" xlink:href="#DejaVuSans-115"/>
     <use x="5220.837891" xlink:href="#DejaVuSans-116"/>
     <use x="5260.046875" xlink:href="#DejaVuSans-111"/>
     <use x="5321.228516" xlink:href="#DejaVuSans-107"/>
     <use x="5379.091797" xlink:href="#DejaVuSans-101"/>
     <use x="5440.615234" xlink:href="#DejaVuSans-115"/>
     <use x="5492.714844" xlink:href="#DejaVuSans-107"/>
     <use x="5550.578125" xlink:href="#DejaVuSans-117"/>
     <use x="5613.957031" xlink:href="#DejaVuSans-115"/>
     <use x="5666.056641" xlink:href="#DejaVuSans-32"/>
     <use x="5697.84375" xlink:href="#DejaVuSans-91"/>
     <use x="5736.857422" xlink:href="#DejaVuSans-118"/>
     <use x="5796.037109" xlink:href="#DejaVuSans-105"/>
     <use x="5823.820312" xlink:href="#DejaVuSans-105"/>
     <use x="5851.603516" xlink:href="#DejaVuSans-116"/>
     <use x="5890.8125" xlink:href="#DejaVuSans-97"/>
     <use x="5952.091797" xlink:href="#DejaVuSans-116"/>
     <use x="5991.300781" xlink:href="#DejaVuSans-116"/>
     <use x="6030.509766" xlink:href="#DejaVuSans-117"/>
     <use x="6093.888672" xlink:href="#DejaVuSans-58"/>
     <use x="6127.580078" xlink:href="#DejaVuSans-32"/>
     <use x="6159.367188" xlink:href="#DejaVuSans-51"/>
     <use x="6222.990234" xlink:href="#DejaVuSans-48"/>
     <use x="6286.613281" xlink:href="#DejaVuSans-46"/>
     <use x="6318.400391" xlink:href="#DejaVuSans-49"/>
     <use x="6382.023438" xlink:href="#DejaVuSans-50"/>
     <use x="6445.646484" xlink:href="#DejaVuSans-46"/>
     <use x="6477.433594" xlink:href="#DejaVuSans-50"/>
     <use x="6541.056641" xlink:href="#DejaVuSans-48"/>
     <use x="6604.679688" xlink:href="#DejaVuSans-50"/>
     <use x="6668.302734" xlink:href="#DejaVuSans-48"/>
     <use x="6731.925781" xlink:href="#DejaVuSans-93"/>
     <use x="6770.939453" xlink:href="#DejaVuSans-46"/>
    </g>
   </g>
   <g id="legend_1">
    <g id="patch_35">
     <path d="M 214.072 415.3648 
L 327.370438 415.3648 
Q 329.370438 415.3648 329.370438 413.3648 
L 329.370438 385.00855 
Q 329.370438 383.00855 327.370438 383.00855 
L 214.072 383.00855 
Q 212.072 383.00855 212.072 385.00855 
L 212.072 413.3648 
Q 212.072 415.3648 214.072 415.3648 
z
" style="fill:#ffffff;opacity:0.8;stroke:#cccccc;stroke-linejoin:miter;"/>
    </g>
    <g id="patch_36">
     <path d="M 216.072 394.606988 
L 236.072 394.606988 
L 236.072 387.606988 
L 216.072 387.606988 
z
" style="fill:#bfbf00;stroke:#ffffff;stroke-linejoin:miter;"/>
    </g>
    <g id="text_24">
     <!-- muutos Q1-&gt;Q2 -->
     <defs>
      <path d="M 39.40625 66.21875 
Q 28.65625 66.21875 22.328125 58.203125 
Q 16.015625 50.203125 16.015625 36.375 
Q 16.015625 22.609375 22.328125 14.59375 
Q 28.65625 6.59375 39.40625 6.59375 
Q 50.140625 6.59375 56.421875 14.59375 
Q 62.703125 22.609375 62.703125 36.375 
Q 62.703125 50.203125 56.421875 58.203125 
Q 50.140625 66.21875 39.40625 66.21875 
z
M 53.21875 1.3125 
L 66.21875 -12.890625 
L 54.296875 -12.890625 
L 43.5 -1.21875 
Q 41.890625 -1.3125 41.03125 -1.359375 
Q 40.1875 -1.421875 39.40625 -1.421875 
Q 24.03125 -1.421875 14.8125 8.859375 
Q 5.609375 19.140625 5.609375 36.375 
Q 5.609375 53.65625 14.8125 63.9375 
Q 24.03125 74.21875 39.40625 74.21875 
Q 54.734375 74.21875 63.90625 63.9375 
Q 73.09375 53.65625 73.09375 36.375 
Q 73.09375 23.6875 67.984375 14.640625 
Q 62.890625 5.609375 53.21875 1.3125 
z
" id="DejaVuSans-81"/>
      <path d="M 10.59375 49.21875 
L 10.59375 58.109375 
L 73.1875 35.40625 
L 73.1875 27.296875 
L 10.59375 4.59375 
L 10.59375 13.484375 
L 60.890625 31.296875 
z
" id="DejaVuSans-62"/>
     </defs>
     <g transform="translate(244.072 394.606988)scale(0.1 -0.1)">
      <use xlink:href="#DejaVuSans-109"/>
      <use x="97.412109" xlink:href="#DejaVuSans-117"/>
      <use x="160.791016" xlink:href="#DejaVuSans-117"/>
      <use x="224.169922" xlink:href="#DejaVuSans-116"/>
      <use x="263.378906" xlink:href="#DejaVuSans-111"/>
      <use x="324.560547" xlink:href="#DejaVuSans-115"/>
      <use x="376.660156" xlink:href="#DejaVuSans-32"/>
      <use x="408.447266" xlink:href="#DejaVuSans-81"/>
      <use x="487.158203" xlink:href="#DejaVuSans-49"/>
      <use x="550.78125" xlink:href="#DejaVuSans-45"/>
      <use x="586.865234" xlink:href="#DejaVuSans-62"/>
      <use x="670.654297" xlink:href="#DejaVuSans-81"/>
      <use x="749.365234" xlink:href="#DejaVuSans-50"/>
     </g>
    </g>
    <g id="patch_37">
     <path d="M 216.072 409.285113 
L 236.072 409.285113 
L 236.072 402.285113 
L 216.072 402.285113 
z
" style="fill:#6c3376;stroke:#ffffff;stroke-linejoin:miter;"/>
    </g>
    <g id="text_25">
     <!-- muutos Q2-&gt;Q3 -->
     <g transform="translate(244.072 409.285113)scale(0.1 -0.1)">
      <use xlink:href="#DejaVuSans-109"/>
      <use x="97.412109" xlink:href="#DejaVuSans-117"/>
      <use x="160.791016" xlink:href="#DejaVuSans-117"/>
      <use x="224.169922" xlink:href="#DejaVuSans-116"/>
      <use x="263.378906" xlink:href="#DejaVuSans-111"/>
      <use x="324.560547" xlink:href="#DejaVuSans-115"/>
      <use x="376.660156" xlink:href="#DejaVuSans-32"/>
      <use x="408.447266" xlink:href="#DejaVuSans-81"/>
      <use x="487.158203" xlink:href="#DejaVuSans-50"/>
      <use x="550.78125" xlink:href="#DejaVuSans-45"/>
      <use x="586.865234" xlink:href="#DejaVuSans-62"/>
      <use x="670.654297" xlink:href="#DejaVuSans-81"/>
      <use x="749.365234" xlink:href="#DejaVuSans-51"/>
     </g>
    </g>
   </g>
  </g>
 </g>
 <defs>
  <clipPath id="p0a2c19ad9c">
   <rect height="363.6864" width="258.84" x="207.072" y="56.6784"/>
  </clipPath>
 </defs>
</svg>
